<svg id="Layer_1" data-name="Layer 1" xmlns="http://www.w3.org/2000/svg" xmlns:xlink="http://www.w3.org/1999/xlink" viewBox="0 0 46.58 60"><defs><style>.cls-1{fill:url(#linear-gradient);}.cls-2{fill:url(#linear-gradient-2);}.cls-3{fill:url(#linear-gradient-3);}.cls-4{fill:url(#linear-gradient-4);}</style><linearGradient id="linear-gradient" x1="3.43" y1="53.38" x2="28.44" y2="53.38" gradientUnits="userSpaceOnUse"><stop offset="0" stop-color="#cfa736"/><stop offset="0.02" stop-color="#c49b33"/><stop offset="0.07" stop-color="#ac822e"/><stop offset="0.12" stop-color="#9e722a"/><stop offset="0.15" stop-color="#996d29"/><stop offset="0.16" stop-color="#9b6f2a"/><stop offset="0.26" stop-color="#caa954"/><stop offset="0.34" stop-color="#e8cc6d"/><stop offset="0.38" stop-color="#f3da77"/><stop offset="0.42" stop-color="#f5df82"/><stop offset="0.48" stop-color="#f9ee9e"/><stop offset="0.51" stop-color="#fbf5ad"/><stop offset="0.52" stop-color="#faf1a7"/><stop offset="0.58" stop-color="#efd477"/><stop offset="0.63" stop-color="#e7be55"/><stop offset="0.67" stop-color="#e3b140"/><stop offset="0.7" stop-color="#e1ac38"/><stop offset="0.77" stop-color="#c69230"/><stop offset="0.93" stop-color="#83521d"/><stop offset="1" stop-color="#603013"/></linearGradient><linearGradient id="linear-gradient-2" x1="39.38" y1="56.39" x2="30.82" y2="56.32" gradientUnits="userSpaceOnUse"><stop offset="0" stop-color="#cfa736"/><stop offset="0.02" stop-color="#c49b33"/><stop offset="0.07" stop-color="#ac822e"/><stop offset="0.12" stop-color="#9e722a"/><stop offset="0.15" stop-color="#996d29"/><stop offset="0.16" stop-color="#9b6f2a"/><stop offset="0.33" stop-color="#caa954"/><stop offset="0.46" stop-color="#e8cc6d"/><stop offset="0.53" stop-color="#f3da77"/><stop offset="0.56" stop-color="#f0d26c"/><stop offset="0.61" stop-color="#e8bd50"/><stop offset="0.65" stop-color="#e1ac38"/><stop offset="0.7" stop-color="#dba636"/><stop offset="0.77" stop-color="#c99531"/><stop offset="0.85" stop-color="#ab7829"/><stop offset="0.94" stop-color="#83511d"/><stop offset="1" stop-color="#603013"/></linearGradient><linearGradient id="linear-gradient-3" x1="3.43" y1="27.26" x2="23.22" y2="27.26" xlink:href="#linear-gradient"/><linearGradient id="linear-gradient-4" x1="26.58" y1="30" x2="49.22" y2="30" xlink:href="#linear-gradient"/></defs><path class="cls-1" d="M24.39,48l4.05,3.68v7h-25v-1c8.76-.2,15.23-3.55,19.46-7.88A13.67,13.67,0,0,0,24,48.61Z"/><polygon class="cls-2" points="36.11 58.71 30.86 58.71 30.86 53.93 36.11 58.71"/><path class="cls-3" d="M18.86,26.43c2.9-3.25,4.36-6.3,4.36-9.08,0-8.86-8.75-16.06-19.5-16.06H3.6l-.17.17V53.24h.29c6.92,0,13.17-2.92,16.73-7.8a11.74,11.74,0,0,0,.84-1.28,13.63,13.63,0,0,0,1.93-7c0-3.58-2.48-6.7-4.35-8.73A1.43,1.43,0,0,1,18.86,26.43Zm-13,24.28h0l0,0,0,0V3.88l.08-.06h0C14.18,3.82,21,10.29,21,18.25c0,3-2.08,5.93-4.11,8.37a1.18,1.18,0,0,0,0,1.63c2.07,2.43,4.09,5,4.09,8C21,44.24,14.18,50.71,5.82,50.71Z"/><polygon class="cls-4" points="43.15 30.76 42.27 32.03 41.26 31.32 41.26 58.71 38.88 58.71 38.88 29.65 34.87 26.85 30.86 29.65 30.86 53.93 28.44 51.72 28.48 31.32 27.46 32.03 26.59 30.76 28.48 29.44 28.48 1.29 30.86 1.29 30.86 27.77 34.87 24.98 38.88 27.77 38.88 1.29 41.26 1.29 41.26 29.44 43.15 30.76"/></svg>