<?xml version="1.0" encoding="utf-8"?>
<!-- Generator: Adobe Illustrator 24.3.0, SVG Export Plug-In . SVG Version: 6.00 Build 0)  -->
<svg version="1.1" id="Layer_1" xmlns="http://www.w3.org/2000/svg" xmlns:xlink="http://www.w3.org/1999/xlink" x="0px" y="0px"
	 viewBox="0 0 1080 1080" style="enable-background:new 0 0 1080 1080;" xml:space="preserve">
<style type="text/css">
	.st0{fill:url(#SVGID_1_);}
	.st1{fill:url(#SVGID_2_);}
	.st2{fill:url(#SVGID_3_);}
	.st3{fill:url(#SVGID_4_);}
	.st4{enable-background:new    ;}
	.st5{fill:#D1A32A;}
</style>
<g>
	<g>
		
			<linearGradient id="SVGID_1_" gradientUnits="userSpaceOnUse" x1="692.3741" y1="419.21" x2="611.3678" y2="419.8796" gradientTransform="matrix(1 0 0 -1 0 1080)">
			<stop  offset="0" style="stop-color:#CFA736"/>
			<stop  offset="2.000000e-02" style="stop-color:#C49B33"/>
			<stop  offset="7.000000e-02" style="stop-color:#AC822E"/>
			<stop  offset="0.12" style="stop-color:#9E722A"/>
			<stop  offset="0.15" style="stop-color:#996D29"/>
			<stop  offset="0.16" style="stop-color:#9B6F2A"/>
			<stop  offset="0.33" style="stop-color:#CAA954"/>
			<stop  offset="0.46" style="stop-color:#E8CC6D"/>
			<stop  offset="0.53" style="stop-color:#F3DA77"/>
			<stop  offset="0.56" style="stop-color:#F0D26C"/>
			<stop  offset="0.61" style="stop-color:#E8BD50"/>
			<stop  offset="0.65" style="stop-color:#E1AC38"/>
			<stop  offset="0.7" style="stop-color:#DBA636"/>
			<stop  offset="0.77" style="stop-color:#C99531"/>
			<stop  offset="0.85" style="stop-color:#AB7829"/>
			<stop  offset="0.94" style="stop-color:#83511D"/>
			<stop  offset="1" style="stop-color:#603013"/>
		</linearGradient>
		<polygon class="st0" points="661.5,682.8 611.7,682.8 611.7,637.4 		"/>
		<g>
			
				<linearGradient id="SVGID_2_" gradientUnits="userSpaceOnUse" x1="351.8463" y1="447.7639" x2="588.7425" y2="447.7639" gradientTransform="matrix(1 0 0 -1 0 1080)">
				<stop  offset="0" style="stop-color:#CFA736"/>
				<stop  offset="2.000000e-02" style="stop-color:#C49B33"/>
				<stop  offset="7.000000e-02" style="stop-color:#AC822E"/>
				<stop  offset="0.12" style="stop-color:#9E722A"/>
				<stop  offset="0.15" style="stop-color:#996D29"/>
				<stop  offset="0.16" style="stop-color:#9B6F2A"/>
				<stop  offset="0.26" style="stop-color:#CAA954"/>
				<stop  offset="0.34" style="stop-color:#E8CC6D"/>
				<stop  offset="0.38" style="stop-color:#F3DA77"/>
				<stop  offset="0.42" style="stop-color:#F5DF82"/>
				<stop  offset="0.48" style="stop-color:#F9EE9E"/>
				<stop  offset="0.51" style="stop-color:#FBF5AD"/>
				<stop  offset="0.52" style="stop-color:#FAF1A7"/>
				<stop  offset="0.58" style="stop-color:#EFD477"/>
				<stop  offset="0.63" style="stop-color:#E7BE55"/>
				<stop  offset="0.67" style="stop-color:#E3B140"/>
				<stop  offset="0.7" style="stop-color:#E1AC38"/>
				<stop  offset="0.77" style="stop-color:#C69230"/>
				<stop  offset="0.93" style="stop-color:#83521D"/>
				<stop  offset="1" style="stop-color:#603013"/>
			</linearGradient>
			<path class="st1" d="M550.5,581.7l38.3,34.9l-0.1,66.2H351.8v-9.5c83-1.9,144.3-33.6,184.3-74.6c3.6-3.7,7-7.5,10.2-11.6
				C547.8,585.3,549.1,583.5,550.5,581.7z"/>
			
				<linearGradient id="SVGID_3_" gradientUnits="userSpaceOnUse" x1="351.8344" y1="695.0878" x2="539.438" y2="695.0878" gradientTransform="matrix(1 0 0 -1 0 1080)">
				<stop  offset="0" style="stop-color:#CFA736"/>
				<stop  offset="2.000000e-02" style="stop-color:#C49B33"/>
				<stop  offset="7.000000e-02" style="stop-color:#AC822E"/>
				<stop  offset="0.12" style="stop-color:#9E722A"/>
				<stop  offset="0.15" style="stop-color:#996D29"/>
				<stop  offset="0.16" style="stop-color:#9B6F2A"/>
				<stop  offset="0.26" style="stop-color:#CAA954"/>
				<stop  offset="0.34" style="stop-color:#E8CC6D"/>
				<stop  offset="0.38" style="stop-color:#F3DA77"/>
				<stop  offset="0.42" style="stop-color:#F5DF82"/>
				<stop  offset="0.48" style="stop-color:#F9EE9E"/>
				<stop  offset="0.51" style="stop-color:#FBF5AD"/>
				<stop  offset="0.52" style="stop-color:#FAF1A7"/>
				<stop  offset="0.58" style="stop-color:#EFD477"/>
				<stop  offset="0.63" style="stop-color:#E7BE55"/>
				<stop  offset="0.67" style="stop-color:#E3B140"/>
				<stop  offset="0.7" style="stop-color:#E1AC38"/>
				<stop  offset="0.77" style="stop-color:#C69230"/>
				<stop  offset="0.93" style="stop-color:#83521D"/>
				<stop  offset="1" style="stop-color:#603013"/>
			</linearGradient>
			<path class="st2" d="M498,377c27.4-30.7,41.3-59.6,41.3-86c0-83.9-82.9-152.1-184.8-152.1h-1.2l-1.6,1.6V631h2.8
				c65.5,0,124.8-27.6,158.5-73.9c2.9-3.9,5.5-7.9,8-12.1c12-20,18.3-42.8,18.3-66.1c0-34-23.5-63.5-41.3-82.8
				C492.9,390.3,492.8,382.8,498,377z M374.5,607h-0.2l-0.4-0.3l-0.3-0.3V163.4l0.7-0.6h0.2c79.2,0,143.6,61.3,143.6,136.7
				c0,28.6-19.6,56.2-38.9,79.3c-4.1,4.9-4,10.5,0.2,15.4c19.6,23,38.7,47.8,38.7,76C518.1,545.7,453.7,607,374.5,607z"/>
			
				<linearGradient id="SVGID_4_" gradientUnits="userSpaceOnUse" x1="571.2234" y1="669.168" x2="785.6617" y2="669.168" gradientTransform="matrix(1 0 0 -1 0 1080)">
				<stop  offset="0" style="stop-color:#CFA736"/>
				<stop  offset="2.000000e-02" style="stop-color:#C49B33"/>
				<stop  offset="7.000000e-02" style="stop-color:#AC822E"/>
				<stop  offset="0.12" style="stop-color:#9E722A"/>
				<stop  offset="0.15" style="stop-color:#996D29"/>
				<stop  offset="0.16" style="stop-color:#9B6F2A"/>
				<stop  offset="0.26" style="stop-color:#CAA954"/>
				<stop  offset="0.34" style="stop-color:#E8CC6D"/>
				<stop  offset="0.38" style="stop-color:#F3DA77"/>
				<stop  offset="0.42" style="stop-color:#F5DF82"/>
				<stop  offset="0.48" style="stop-color:#F9EE9E"/>
				<stop  offset="0.51" style="stop-color:#FBF5AD"/>
				<stop  offset="0.52" style="stop-color:#FAF1A7"/>
				<stop  offset="0.58" style="stop-color:#EFD477"/>
				<stop  offset="0.63" style="stop-color:#E7BE55"/>
				<stop  offset="0.67" style="stop-color:#E3B140"/>
				<stop  offset="0.7" style="stop-color:#E1AC38"/>
				<stop  offset="0.77" style="stop-color:#C69230"/>
				<stop  offset="0.93" style="stop-color:#83521D"/>
				<stop  offset="1" style="stop-color:#603013"/>
			</linearGradient>
			<polygon class="st3" points="728.2,418 719.8,430 710.2,423.3 710.2,682.8 687.6,682.8 687.6,407.5 649.7,381 611.7,407.5 
				611.7,637.4 588.8,616.6 589.1,423.3 579.5,430 571.2,418 589.2,405.5 589.2,138.9 611.7,138.9 611.7,389.7 649.7,363.2 
				687.6,389.7 687.6,138.9 710.2,138.9 710.2,405.5 			"/>
		</g>
	</g>
	<g class="st4">
		<path class="st5" d="M102.7,815.9c0,3.3-0.7,6.2-2,8.8c-1.3,2.6-3.1,4.8-5.4,6.6c-2.3,1.8-4.9,3.2-8,4.1c-3.1,1-6.3,1.4-9.8,1.4
			H38.6v-81.5h42c2.8,0,5.4,0.6,7.7,1.8c2.3,1.2,4.2,2.8,5.9,4.8s2.9,4.2,3.7,6.7c0.9,2.5,1.3,5,1.3,7.5c0,4-1,7.7-3,11.2
			c-2,3.5-4.9,6.1-8.7,7.8c4.7,1.4,8.4,3.9,11.1,7.5C101.3,806.3,102.7,810.7,102.7,815.9z M51.5,766.6v24h23.7
			c1.6,0,3.1-0.3,4.4-0.9c1.3-0.6,2.5-1.4,3.6-2.5c1-1,1.8-2.3,2.4-3.7c0.6-1.5,0.9-3.1,0.9-4.8c0-3.5-1-6.4-3-8.7
			c-2-2.3-4.5-3.4-7.6-3.4H51.5z M89.5,813.5c0-1.7-0.3-3.3-0.9-4.8c-0.6-1.5-1.3-2.9-2.3-4c-1-1.1-2.1-2.1-3.5-2.8
			c-1.4-0.7-2.9-1-4.5-1H51.5v24.9h26.1c1.7,0,3.3-0.3,4.7-1c1.5-0.6,2.7-1.5,3.8-2.6c1.1-1.1,1.9-2.4,2.5-3.9
			C89.2,816.8,89.5,815.2,89.5,813.5z"/>
		<path class="st5" d="M189.3,825.6V837h-55.9v-81.5h54.9v11.4h-42V790h36.4v10.7h-36.4v24.9H189.3z"/>
		<path class="st5" d="M232.7,779.5V837h-12.9v-81.5h10.1l46.6,58.8v-58.7h13V837h-10.7L232.7,779.5z"/>
		<path class="st5" d="M325.1,837v-81.5h28.9c6.6,0,12.3,1.1,17.3,3.2c4.9,2.1,9.1,5.1,12.4,8.7s5.8,8,7.5,12.9
			c1.7,4.9,2.5,10.2,2.5,15.8c0,6.2-0.9,11.8-2.8,16.8c-1.9,5-4.5,9.3-8,12.9c-3.4,3.6-7.6,6.3-12.5,8.3c-4.9,2-10.4,2.9-16.4,2.9
			H325.1z M380.7,796.1c0-4.3-0.6-8.2-1.8-11.8c-1.2-3.6-2.9-6.7-5.2-9.2c-2.3-2.6-5.1-4.6-8.4-6c-3.3-1.5-7-2.2-11.3-2.2H338v58.8
			h16.1c4.3,0,8.1-0.7,11.4-2.2s6.1-3.6,8.4-6.2c2.3-2.6,4-5.8,5.1-9.4C380.1,804.2,380.7,800.3,380.7,796.1z"/>
		<path class="st5" d="M424.6,837v-81.5h12.9V837H424.6z"/>
	</g>
	<g class="st4">
		<path class="st5" d="M478,755.4l22.6,32.2l22.6-32.2h14.1l-29.9,41.3l28.9,40.2h-14.1l-21.7-31L479,837h-14.2l29.1-40.2l-30-41.3
			H478z"/>
	</g>
	<g class="st4">
		<path class="st5" d="M675,755.4V837h-13V801h-41.1V837H608v-81.5h12.9v34.1H662v-34.1H675z"/>
	</g>
	<g class="st4">
		<path class="st5" d="M744.4,837.5c-5.8,0-11.1-1.2-15.9-3.5c-4.8-2.3-8.9-5.4-12.3-9.3c-3.4-3.9-6.1-8.3-8-13.3
			c-1.9-5-2.8-10.1-2.8-15.3c0-5.4,1-10.6,3-15.6c2-5,4.7-9.4,8.2-13.2c3.5-3.8,7.6-6.9,12.4-9.1c4.8-2.3,10-3.4,15.7-3.4
			c5.8,0,11.1,1.2,15.9,3.6c4.8,2.4,8.9,5.6,12.3,9.5s6,8.3,7.9,13.3c1.9,4.9,2.8,10,2.8,15.1c0,5.4-1,10.6-2.9,15.6
			c-2,5-4.7,9.4-8.2,13.1c-3.5,3.8-7.7,6.8-12.5,9.1C755.2,836.4,750,837.5,744.4,837.5z M718.5,796.2c0,3.8,0.6,7.5,1.8,11.1
			c1.2,3.6,3,6.8,5.2,9.5c2.3,2.8,5,5,8.2,6.6c3.2,1.6,6.8,2.5,10.8,2.5c4.1,0,7.8-0.9,11-2.6c3.2-1.7,5.9-4,8.1-6.8
			c2.2-2.8,3.9-6,5.1-9.5c1.1-3.5,1.7-7.1,1.7-10.8c0-3.9-0.6-7.6-1.8-11.2c-1.2-3.6-3-6.7-5.2-9.4c-2.3-2.7-5-4.9-8.2-6.5
			c-3.2-1.6-6.7-2.5-10.6-2.5c-4.1,0-7.8,0.9-11,2.6c-3.2,1.7-5.9,4-8.2,6.7c-2.2,2.8-3.9,5.9-5.1,9.5
			C719.1,788.9,718.5,792.5,718.5,796.2z"/>
	</g>
	<g class="st4">
		<path class="st5" d="M870.2,766.8h-27.1V837h-13v-70.2h-27.2v-11.4h67.3V766.8z"/>
		<path class="st5" d="M954.2,825.6V837h-55.9v-81.5h54.9v11.4h-42V790h36.4v10.7h-36.4v24.9H954.2z"/>
	</g>
	<g class="st4">
		<path class="st5" d="M984.8,837v-81.5h12.9v70.2h43.8V837H984.8z"/>
	</g>
	<g class="st4">
		<path class="st5" d="M344.1,917.9c-0.2-0.2-0.6-0.5-1.1-0.8c-0.5-0.3-1.2-0.7-2-1c-0.8-0.3-1.6-0.6-2.5-0.9
			c-0.9-0.2-1.8-0.3-2.7-0.3c-1.7,0-2.9,0.3-3.7,0.9c-0.8,0.6-1.2,1.5-1.2,2.6c0,0.6,0.2,1.2,0.5,1.6c0.3,0.4,0.7,0.8,1.3,1.1
			c0.6,0.3,1.3,0.6,2.2,0.9c0.9,0.3,1.9,0.5,3.1,0.8c1.5,0.4,2.9,0.8,4.1,1.3c1.2,0.5,2.3,1,3.1,1.7c0.9,0.7,1.5,1.5,2,2.5
			c0.5,1,0.7,2.2,0.7,3.6c0,1.7-0.3,3.1-0.9,4.3c-0.6,1.2-1.5,2.1-2.5,2.9c-1.1,0.7-2.3,1.3-3.7,1.6c-1.4,0.3-2.8,0.5-4.3,0.5
			c-2.3,0-4.6-0.3-6.9-1c-2.3-0.7-4.3-1.7-6.1-3l2.7-5.2c0.3,0.3,0.7,0.6,1.4,1c0.7,0.4,1.5,0.8,2.4,1.3c0.9,0.4,2,0.8,3.1,1.1
			c1.1,0.3,2.3,0.4,3.5,0.4c3.3,0,5-1.1,5-3.2c0-0.7-0.2-1.2-0.6-1.7c-0.4-0.5-0.9-0.9-1.6-1.2c-0.7-0.3-1.5-0.7-2.5-1
			c-1-0.3-2.1-0.6-3.3-1c-1.5-0.4-2.8-0.9-3.9-1.3c-1.1-0.5-2-1-2.7-1.7c-0.7-0.7-1.3-1.4-1.6-2.3c-0.4-0.9-0.5-1.9-0.5-3.1
			c0-1.6,0.3-3,0.9-4.2c0.6-1.2,1.4-2.2,2.4-3.1c1-0.8,2.2-1.4,3.6-1.9c1.4-0.4,2.8-0.6,4.4-0.6c2.2,0,4.2,0.3,6,1
			c1.8,0.7,3.4,1.5,4.8,2.4L344.1,917.9z"/>
	</g>
	<g class="st4">
		<path class="st5" d="M369.4,909.8h5.3l11.8,31h-6.2l-2.9-7.7h-10.8l-2.8,7.7h-6.2L369.4,909.8z M376.3,928.8l-4.3-12.2l-4.4,12.2
			H376.3z"/>
		<path class="st5" d="M404.6,920.9v19.8h-6v-31h4.7l16.1,20.3v-20.3h6v30.9h-4.9L404.6,920.9z"/>
		<path class="st5" d="M459.8,940.8v-31h20.8v5.3h-14.8v8h12.3v4.9h-12.3v12.8H459.8z"/>
		<path class="st5" d="M515.1,935.5v5.3h-21.5v-31h21.1v5.3h-15.1v7.5h13v4.9h-13v8.1H515.1z"/>
		<path class="st5" d="M528.5,940.8v-31h13.7c1.4,0,2.7,0.3,3.9,0.9c1.2,0.6,2.2,1.4,3.1,2.4c0.9,1,1.6,2.1,2,3.3
			c0.5,1.2,0.7,2.5,0.7,3.7c0,2-0.5,3.8-1.5,5.5c-1,1.6-2.4,2.8-4.1,3.6l7.1,11.6h-6.8l-6.3-10.4h-5.9v10.4H528.5z M534.5,925.1h7.5
			c0.6,0,1.1-0.1,1.5-0.4s0.9-0.6,1.2-1.1c0.3-0.5,0.6-1,0.8-1.6c0.2-0.6,0.3-1.3,0.3-2c0-0.7-0.1-1.4-0.3-2
			c-0.2-0.6-0.5-1.1-0.9-1.6c-0.4-0.5-0.8-0.8-1.4-1c-0.5-0.2-1-0.4-1.5-0.4h-7.3V925.1z"/>
		<path class="st5" d="M572.3,920.9v19.8h-6v-31h4.7l16.1,20.3v-20.3h6v30.9h-4.9L572.3,920.9z"/>
		<path class="st5" d="M617.1,909.8h5.3l11.8,31H628l-2.9-7.7h-10.8l-2.8,7.7h-6.2L617.1,909.8z M624,928.8l-4.3-12.2l-4.4,12.2H624
			z"/>
		<path class="st5" d="M652.3,920.9v19.8h-6v-31h4.7l16.1,20.3v-20.3h6v30.9h-4.9L652.3,920.9z"/>
		<path class="st5" d="M688.3,940.8v-31h11.3c2.5,0,4.7,0.4,6.7,1.2c1.9,0.8,3.5,1.9,4.8,3.3c1.3,1.4,2.2,3,2.9,4.9s1,3.9,1,6
			c0,2.4-0.4,4.5-1.1,6.4c-0.7,1.9-1.7,3.5-3.1,4.9s-2.9,2.4-4.8,3.1c-1.9,0.7-4,1.1-6.3,1.1H688.3z M708.8,925.3
			c0-1.5-0.2-2.8-0.6-4.1c-0.4-1.2-1-2.3-1.8-3.2s-1.8-1.6-2.9-2.1c-1.1-0.5-2.5-0.7-3.9-0.7h-5.2v20.4h5.2c1.5,0,2.8-0.3,3.9-0.8
			c1.1-0.5,2.1-1.2,2.9-2.2c0.8-0.9,1.4-2,1.8-3.2C708.6,928.1,708.8,926.7,708.8,925.3z"/>
		<path class="st5" d="M741.5,941c-2.3,0-4.3-0.4-6.2-1.3c-1.8-0.9-3.4-2.1-4.8-3.5c-1.3-1.5-2.3-3.1-3.1-5
			c-0.7-1.9-1.1-3.8-1.1-5.8c0-2.1,0.4-4,1.2-5.9s1.8-3.6,3.2-5s3-2.6,4.8-3.5c1.9-0.9,3.9-1.3,6.1-1.3c2.2,0,4.3,0.5,6.1,1.4
			s3.4,2.1,4.7,3.6c1.3,1.5,2.3,3.2,3.1,5.1c0.7,1.9,1.1,3.8,1.1,5.8c0,2.1-0.4,4-1.1,5.9s-1.8,3.5-3.1,5s-2.9,2.6-4.8,3.4
			C745.7,940.6,743.7,941,741.5,941z M732.5,925.3c0,1.3,0.2,2.6,0.6,3.9s1,2.4,1.8,3.3c0.8,1,1.7,1.7,2.8,2.3
			c1.1,0.6,2.4,0.9,3.8,0.9c1.5,0,2.7-0.3,3.9-0.9c1.1-0.6,2.1-1.4,2.8-2.4c0.8-1,1.4-2.1,1.7-3.3c0.4-1.2,0.6-2.5,0.6-3.8
			c0-1.3-0.2-2.6-0.6-3.9c-0.4-1.2-1-2.4-1.8-3.3c-0.8-1-1.7-1.7-2.8-2.3c-1.1-0.6-2.4-0.9-3.8-0.9c-1.5,0-2.7,0.3-3.9,0.9
			c-1.1,0.6-2.1,1.4-2.8,2.4c-0.8,1-1.3,2.1-1.7,3.3S732.5,924,732.5,925.3z"/>
	</g>
</g>
</svg>
