<svg id="Layer_1" data-name="Layer 1" xmlns="http://www.w3.org/2000/svg" viewBox="0 0 588.91 819.71"><defs><style>.cls-1{fill:#d4af34;}</style></defs><path class="cls-1" d="M309.16,650.36l53.95,49.13-.18,93.21H29.62V779.34C146.44,776.62,232.7,732,289.11,674.28A194.83,194.83,0,0,0,303.44,658C305.42,655.49,307.29,653,309.16,650.36Z"/><polygon class="cls-1" points="465.42 792.7 395.37 792.7 395.37 728.88 465.42 792.7"/><path class="cls-1" d="M235.37,362.2c38.61-43.23,58.2-83.95,58.2-121.06C293.57,123.09,176.9,27,33.46,27l-1.61,0-2.23,2.25V719.72h3.84c92.26,0,175.67-38.9,223.16-104a192.09,192.09,0,0,0,11.18-17c17.1-29.13,25.77-60.44,25.77-93.05,0-47.85-33.15-89.41-58.08-116.52C228.06,381,228,370.46,235.37,362.2ZM61.49,686h-.31l-.61-.38-.39-.39V61.52l1-.77h.31c111.46,0,202.13,86.34,202.13,192.42,0,40.26-27.67,79.05-54.74,111.67-5.72,6.9-5.64,14.8.23,21.69,27.59,32.39,54.51,67.34,54.51,107.06C263.62,599.67,173,686,61.49,686Z"/><polygon class="cls-1" points="559.3 420 547.55 436.87 534.04 427.41 534.04 792.7 502.24 792.7 502.24 405.2 448.83 367.87 395.37 405.2 395.37 728.88 363.11 699.49 363.6 427.41 350.09 436.87 338.37 420 363.63 402.33 363.63 27.04 395.37 27.04 395.37 380.17 448.81 342.87 502.24 380.17 502.24 27.01 534.04 27.01 534.04 402.35 559.3 420"/></svg>