<svg id="Layer_1" data-name="Layer 1" xmlns="http://www.w3.org/2000/svg" xmlns:xlink="http://www.w3.org/1999/xlink" viewBox="0 0 588.91 819.71"><defs><style>.cls-1{fill:url(#linear-gradient);}.cls-2{fill:url(#linear-gradient-2);}.cls-3{fill:url(#linear-gradient-3);}.cls-4{fill:url(#linear-gradient-4);}</style><linearGradient id="linear-gradient" x1="29.62" y1="721.53" x2="363.11" y2="721.53" gradientUnits="userSpaceOnUse"><stop offset="0" stop-color="#cfa736"/><stop offset="0.02" stop-color="#c49b33"/><stop offset="0.07" stop-color="#ac822e"/><stop offset="0.12" stop-color="#9e722a"/><stop offset="0.15" stop-color="#996d29"/><stop offset="0.16" stop-color="#9b6f2a"/><stop offset="0.26" stop-color="#caa954"/><stop offset="0.34" stop-color="#e8cc6d"/><stop offset="0.38" stop-color="#f3da77"/><stop offset="0.42" stop-color="#f5df82"/><stop offset="0.48" stop-color="#f9ee9e"/><stop offset="0.51" stop-color="#fbf5ad"/><stop offset="0.52" stop-color="#faf1a7"/><stop offset="0.58" stop-color="#efd477"/><stop offset="0.63" stop-color="#e7be55"/><stop offset="0.67" stop-color="#e3b140"/><stop offset="0.7" stop-color="#e1ac38"/><stop offset="0.77" stop-color="#c69230"/><stop offset="0.93" stop-color="#83521d"/><stop offset="1" stop-color="#603013"/></linearGradient><linearGradient id="linear-gradient-2" x1="508.94" y1="761.74" x2="394.9" y2="760.78" gradientUnits="userSpaceOnUse"><stop offset="0" stop-color="#cfa736"/><stop offset="0.02" stop-color="#c49b33"/><stop offset="0.07" stop-color="#ac822e"/><stop offset="0.12" stop-color="#9e722a"/><stop offset="0.15" stop-color="#996d29"/><stop offset="0.16" stop-color="#9b6f2a"/><stop offset="0.33" stop-color="#caa954"/><stop offset="0.46" stop-color="#e8cc6d"/><stop offset="0.53" stop-color="#f3da77"/><stop offset="0.56" stop-color="#f0d26c"/><stop offset="0.61" stop-color="#e8bd50"/><stop offset="0.65" stop-color="#e1ac38"/><stop offset="0.7" stop-color="#dba636"/><stop offset="0.77" stop-color="#c99531"/><stop offset="0.85" stop-color="#ab7829"/><stop offset="0.94" stop-color="#83511d"/><stop offset="1" stop-color="#603013"/></linearGradient><linearGradient id="linear-gradient-3" x1="29.62" y1="373.37" x2="293.57" y2="373.37" xlink:href="#linear-gradient"/><linearGradient id="linear-gradient-4" x1="338.37" y1="409.85" x2="640.22" y2="409.85" xlink:href="#linear-gradient"/></defs><path class="cls-1" d="M309.16,650.36l53.95,49.13-.18,93.21H29.62V779.34C146.44,776.62,232.7,732,289.11,674.28A194.83,194.83,0,0,0,303.44,658C305.42,655.49,307.29,653,309.16,650.36Z"/><polygon class="cls-2" points="465.42 792.7 395.37 792.7 395.37 728.88 465.42 792.7"/><path class="cls-3" d="M235.37,362.2c38.61-43.23,58.2-83.95,58.2-121.06C293.57,123.09,176.9,27,33.46,27l-1.61,0-2.23,2.25V719.72h3.84c92.26,0,175.67-38.9,223.16-104a192.09,192.09,0,0,0,11.18-17c17.1-29.13,25.77-60.44,25.77-93.05,0-47.85-33.15-89.41-58.08-116.52C228.06,381,228,370.46,235.37,362.2ZM61.49,686h-.31l-.61-.38-.39-.39V61.52l1-.77h.31c111.46,0,202.13,86.34,202.13,192.42,0,40.26-27.67,79.05-54.74,111.67-5.72,6.9-5.64,14.8.23,21.69,27.59,32.39,54.51,67.34,54.51,107.06C263.62,599.67,173,686,61.49,686Z"/><polygon class="cls-4" points="559.3 420 547.55 436.87 534.04 427.41 534.04 792.7 502.24 792.7 502.24 405.2 448.83 367.87 395.37 405.2 395.37 728.88 363.11 699.49 363.6 427.41 350.09 436.87 338.37 420 363.63 402.33 363.63 27.04 395.37 27.04 395.37 380.17 448.81 342.87 502.24 380.17 502.24 27.01 534.04 27.01 534.04 402.35 559.3 420"/></svg>