<svg id="Layer_1" data-name="Layer 1" xmlns="http://www.w3.org/2000/svg" viewBox="0 0 761.62 367"><defs><style>.cls-1{fill:#3a3a3a;}</style></defs><path class="cls-1" d="M137.83,284.77l22.59,20.57-.07,39H20.78v-5.6c48.92-1.14,85-19.81,108.66-44a86.13,86.13,0,0,0,6-6.82C136.26,286.92,137.05,285.85,137.83,284.77Z"/><polygon class="cls-1" points="203.26 344.37 173.93 344.37 173.93 317.64 203.26 344.37"/><path class="cls-1" d="M106.93,164.11C123.1,146,131.3,129,131.3,113.43,131.3,64,82.45,23.78,22.39,23.77h-.67l-.94.94V313.81h1.61c38.63,0,73.56-16.29,93.44-43.56a79.3,79.3,0,0,0,4.68-7.12,76,76,0,0,0,10.79-39c0-20-13.88-37.44-24.31-48.78A8,8,0,0,1,106.93,164.11ZM34.13,299.69H34l-.26-.16-.16-.16V38.22L34,37.9h.13c46.67,0,84.63,36.15,84.63,80.56,0,16.86-11.58,33.1-22.92,46.76a6.58,6.58,0,0,0,.1,9.08c11.55,13.56,22.82,28.2,22.82,44.83C118.76,263.54,80.8,299.68,34.13,299.69Z"/><polygon class="cls-1" points="242.56 188.31 237.65 195.38 231.99 191.42 231.99 344.37 218.68 344.37 218.68 182.12 196.31 166.49 173.93 182.12 173.93 317.64 160.42 305.34 160.63 191.42 154.97 195.38 150.06 188.31 160.64 180.91 160.64 23.78 173.93 23.78 173.93 171.64 196.3 156.02 218.68 171.64 218.68 23.77 231.99 23.77 231.99 180.93 242.56 188.31"/><path d="M347,129.38a19.35,19.35,0,0,1-2,9,20.4,20.4,0,0,1-5.48,6.71,24.57,24.57,0,0,1-8.11,4.2,33.08,33.08,0,0,1-9.91,1.46H281.86V67.9h42.7a16.38,16.38,0,0,1,7.81,1.86,19.41,19.41,0,0,1,5.95,4.85,21.86,21.86,0,0,1,3.79,6.76A22.67,22.67,0,0,1,343.46,89a22.25,22.25,0,0,1-3.1,11.38,18.83,18.83,0,0,1-8.8,7.87,21.06,21.06,0,0,1,11.25,7.64A21.91,21.91,0,0,1,347,129.38Zm-52-50.17v24.38h24a10.71,10.71,0,0,0,4.49-.93,12.3,12.3,0,0,0,3.62-2.51,11.07,11.07,0,0,0,2.45-3.79,13.27,13.27,0,0,0,.87-4.9,12.87,12.87,0,0,0-3-8.81,9.84,9.84,0,0,0-7.7-3.44Zm38.61,47.72a13.89,13.89,0,0,0-.87-4.9,14.23,14.23,0,0,0-2.34-4.09,11,11,0,0,0-3.56-2.8,10,10,0,0,0-4.55-1H294.93v25.32h26.48a11.59,11.59,0,0,0,4.78-1,12.19,12.19,0,0,0,3.85-2.69,12.53,12.53,0,0,0,2.57-4A12.68,12.68,0,0,0,333.54,126.93Z"/><path d="M426.17,139.18v11.55H369.35V67.9h55.77V79.45h-42.7V103h37v10.85h-37v25.32Z"/><path d="M461.51,92.4v58.33H448.45V67.9h10.26l47.37,59.73V68h13.18v82.72H508.41Z"/><path d="M546.68,150.73V67.9h29.39a44,44,0,0,1,17.56,3.26A36.19,36.19,0,0,1,606.23,80a37.2,37.2,0,0,1,7.64,13.12,49.43,49.43,0,0,1,2.57,16,48.58,48.58,0,0,1-2.86,17.09,37.39,37.39,0,0,1-8.11,13.07,35.91,35.91,0,0,1-12.71,8.4,44.81,44.81,0,0,1-16.69,3Zm56.46-41.54a38.34,38.34,0,0,0-1.81-12A26.18,26.18,0,0,0,596,87.79a24.61,24.61,0,0,0-8.51-6.13,28.2,28.2,0,0,0-11.44-2.21H559.74v59.73h16.33a28,28,0,0,0,11.61-2.28,24.06,24.06,0,0,0,8.52-6.3,27.19,27.19,0,0,0,5.19-9.51A38.81,38.81,0,0,0,603.14,109.19Z"/><path d="M639,150.73V67.9H652v82.83Z"/><path d="M684.56,67.9l23,32.66,23-32.66h14.35l-30.33,42,29.39,40.84H729.59l-22-31.5-22,31.5H671l29.52-40.84-30.45-42Z"/><path d="M349.87,207.89v82.83H336.69V254.2H294.93v36.52H281.86V207.89h13.07v34.65h41.76V207.89Z"/><path d="M411.7,291.3a36.39,36.39,0,0,1-16.16-3.56A40.2,40.2,0,0,1,383,278.29a42.52,42.52,0,0,1-8.1-13.47A43.6,43.6,0,0,1,372,249.3a42.33,42.33,0,0,1,3-15.86A44,44,0,0,1,383.41,220a39.77,39.77,0,0,1,12.6-9.27,36.76,36.76,0,0,1,15.93-3.44A35.38,35.38,0,0,1,428.09,211a40.74,40.74,0,0,1,12.48,9.62,44.11,44.11,0,0,1,8.05,13.48,43.2,43.2,0,0,1-.11,31.2,42.1,42.1,0,0,1-8.34,13.36,41,41,0,0,1-12.66,9.22A36.62,36.62,0,0,1,411.7,291.3Zm-26.36-42a35,35,0,0,0,1.86,11.32,30.9,30.9,0,0,0,5.31,9.68,25.94,25.94,0,0,0,8.34,6.71,23.75,23.75,0,0,0,11,2.51A23,23,0,0,0,423,276.89a26.07,26.07,0,0,0,8.22-6.94,31.26,31.26,0,0,0,5.14-9.68,35.36,35.36,0,0,0,1.75-11,34.8,34.8,0,0,0-1.87-11.37,30,30,0,0,0-5.31-9.57,26.54,26.54,0,0,0-8.28-6.65,24.81,24.81,0,0,0-22,.12,26.56,26.56,0,0,0-8.28,6.82,30.41,30.41,0,0,0-5.19,9.63A34.49,34.49,0,0,0,385.34,249.3Z"/><path d="M530.7,219.44H503.16v71.28H490V219.44H462.33V207.89H530.7Z"/><path d="M607.34,279.17v11.55H550.53V207.89h55.76v11.55h-42.7V243h37v10.85h-37v25.32Z"/><path d="M629.62,290.72V207.89h13.07v71.28h44.45v11.55Z"/><path class="cls-1" d="M347,129.38a19.35,19.35,0,0,1-2,9,20.4,20.4,0,0,1-5.48,6.71,24.57,24.57,0,0,1-8.11,4.2,33.08,33.08,0,0,1-9.91,1.46H281.86V67.9h42.7a16.38,16.38,0,0,1,7.81,1.86,19.41,19.41,0,0,1,5.95,4.85,21.86,21.86,0,0,1,3.79,6.76A22.67,22.67,0,0,1,343.46,89a22.25,22.25,0,0,1-3.1,11.38,18.83,18.83,0,0,1-8.8,7.87,21.06,21.06,0,0,1,11.25,7.64A21.91,21.91,0,0,1,347,129.38Zm-52-50.17v24.38h24a10.71,10.71,0,0,0,4.49-.93,12.3,12.3,0,0,0,3.62-2.51,11.07,11.07,0,0,0,2.45-3.79,13.27,13.27,0,0,0,.87-4.9,12.87,12.87,0,0,0-3-8.81,9.84,9.84,0,0,0-7.7-3.44Zm38.61,47.72a13.89,13.89,0,0,0-.87-4.9,14.23,14.23,0,0,0-2.34-4.09,11,11,0,0,0-3.56-2.8,10,10,0,0,0-4.55-1H294.93v25.32h26.48a11.59,11.59,0,0,0,4.78-1,12.19,12.19,0,0,0,3.85-2.69,12.53,12.53,0,0,0,2.57-4A12.68,12.68,0,0,0,333.54,126.93Z"/><path class="cls-1" d="M426.17,139.18v11.55H369.35V67.9h55.77V79.45h-42.7V103h37v10.85h-37v25.32Z"/><path class="cls-1" d="M461.51,92.4v58.33H448.45V67.9h10.26l47.37,59.73V68h13.18v82.72H508.41Z"/><path class="cls-1" d="M546.68,150.73V67.9h29.39a44,44,0,0,1,17.56,3.26A36.19,36.19,0,0,1,606.23,80a37.2,37.2,0,0,1,7.64,13.12,49.43,49.43,0,0,1,2.57,16,48.58,48.58,0,0,1-2.86,17.09,37.39,37.39,0,0,1-8.11,13.07,35.91,35.91,0,0,1-12.71,8.4,44.81,44.81,0,0,1-16.69,3Zm56.46-41.54a38.34,38.34,0,0,0-1.81-12A26.18,26.18,0,0,0,596,87.79a24.61,24.61,0,0,0-8.51-6.13,28.2,28.2,0,0,0-11.44-2.21H559.74v59.73h16.33a28,28,0,0,0,11.61-2.28,24.06,24.06,0,0,0,8.52-6.3,27.19,27.19,0,0,0,5.19-9.51A38.81,38.81,0,0,0,603.14,109.19Z"/><path class="cls-1" d="M639,150.73V67.9H652v82.83Z"/><path class="cls-1" d="M684.56,67.9l23,32.66,23-32.66h14.35l-30.33,42,29.39,40.84H729.59l-22-31.5-22,31.5H671l29.52-40.84-30.45-42Z"/><path class="cls-1" d="M349.87,207.89v82.83H336.69V254.2H294.93v36.52H281.86V207.89h13.07v34.65h41.76V207.89Z"/><path class="cls-1" d="M411.7,291.3a36.39,36.39,0,0,1-16.16-3.56A40.2,40.2,0,0,1,383,278.29a42.52,42.52,0,0,1-8.1-13.47A43.6,43.6,0,0,1,372,249.3a42.33,42.33,0,0,1,3-15.86A44,44,0,0,1,383.41,220a39.77,39.77,0,0,1,12.6-9.27,36.76,36.76,0,0,1,15.93-3.44A35.38,35.38,0,0,1,428.09,211a40.74,40.74,0,0,1,12.48,9.62,44.11,44.11,0,0,1,8.05,13.48,43.2,43.2,0,0,1-.11,31.2,42.1,42.1,0,0,1-8.34,13.36,41,41,0,0,1-12.66,9.22A36.62,36.62,0,0,1,411.7,291.3Zm-26.36-42a35,35,0,0,0,1.86,11.32,30.9,30.9,0,0,0,5.31,9.68,25.94,25.94,0,0,0,8.34,6.71,23.75,23.75,0,0,0,11,2.51A23,23,0,0,0,423,276.89a26.07,26.07,0,0,0,8.22-6.94,31.26,31.26,0,0,0,5.14-9.68,35.36,35.36,0,0,0,1.75-11,34.8,34.8,0,0,0-1.87-11.37,30,30,0,0,0-5.31-9.57,26.54,26.54,0,0,0-8.28-6.65,24.81,24.81,0,0,0-22,.12,26.56,26.56,0,0,0-8.28,6.82,30.41,30.41,0,0,0-5.19,9.63A34.49,34.49,0,0,0,385.34,249.3Z"/><path class="cls-1" d="M530.7,219.44H503.16v71.28H490V219.44H462.33V207.89H530.7Z"/><path class="cls-1" d="M607.34,279.17v11.55H550.53V207.89h55.76v11.55h-42.7V243h37v10.85h-37v25.32Z"/><path class="cls-1" d="M629.62,290.72V207.89h13.07v71.28h44.45v11.55Z"/></svg>