<svg xmlns="http://www.w3.org/2000/svg" xmlns:xlink="http://www.w3.org/1999/xlink" viewBox="0 0 4833.52 1124.04"><defs><style>.cls-1{fill:#606161;}.cls-2{fill:url(#linear-gradient);}.cls-3{isolation:isolate;}.cls-4{clip-path:url(#clip-path);}.cls-5{fill:url(#linear-gradient-3);}.cls-6{opacity:0.6;mix-blend-mode:multiply;}.cls-7{clip-path:url(#clip-path-2);}.cls-8{fill:url(#linear-gradient-4);}.cls-9{fill:url(#linear-gradient-5);}.cls-10{fill:url(#linear-gradient-6);}.cls-11{fill:#87721c;}.cls-12{fill:url(#linear-gradient-8);}.cls-13{fill:url(#linear-gradient-9);}.cls-14{fill:url(#linear-gradient-10);}.cls-15{fill:url(#linear-gradient-11);}.cls-16{fill:url(#linear-gradient-12);}.cls-17{fill:url(#linear-gradient-13);}.cls-18{fill:url(#linear-gradient-14);}.cls-19{fill:url(#linear-gradient-15);}.cls-20{fill:url(#linear-gradient-16);}.cls-21,.cls-26{font-size:395.23px;letter-spacing:0.2em;}.cls-21,.cls-26,.cls-27{font-family:Raleway-SemiBold, Raleway;font-weight:600;}.cls-22{letter-spacing:0.19em;}.cls-23{letter-spacing:0.17em;}.cls-24{letter-spacing:0.2em;}.cls-25{letter-spacing:0.17em;}.cls-26,.cls-27{fill:#d4af34;}.cls-27{font-size:164.74px;letter-spacing:0.19em;}.cls-28{letter-spacing:0.2em;}</style><linearGradient id="linear-gradient" x1="101.36" y1="273.67" x2="354.7" y2="273.67" gradientUnits="userSpaceOnUse"><stop offset="0.01" stop-color="#996d29"/><stop offset="0.02" stop-color="#9b6f29"/><stop offset="0.09" stop-color="#bb8c2b"/><stop offset="0.17" stop-color="#d2a02d"/><stop offset="0.24" stop-color="#e0ad2e"/><stop offset="0.3" stop-color="#e5b12e"/><stop offset="0.32" stop-color="#e9bc41"/><stop offset="0.38" stop-color="#f2d873"/><stop offset="0.39" stop-color="#f3da77"/><stop offset="0.41" stop-color="#f4de80"/><stop offset="0.46" stop-color="#f8ea97"/><stop offset="0.49" stop-color="#fbf5ad"/><stop offset="0.52" stop-color="#f6e796"/><stop offset="0.57" stop-color="#edcd6e"/><stop offset="0.62" stop-color="#e6bb50"/><stop offset="0.67" stop-color="#e2b03e"/><stop offset="0.7" stop-color="#e1ac38"/><stop offset="0.72" stop-color="#d8a335"/><stop offset="0.76" stop-color="#c08c2f"/><stop offset="0.81" stop-color="#996623"/><stop offset="0.87" stop-color="#623214"/><stop offset="0.87" stop-color="#603013"/></linearGradient><clipPath id="clip-path"><path class="cls-2" d="M354.7,369.35V411C354.7,282.53,241.07,178,101.36,178V136.4C241.07,136.43,354.7,240.93,354.7,369.35Z"/></clipPath><linearGradient id="linear-gradient-3" x1="101.36" y1="273.67" x2="354.7" y2="273.67" xlink:href="#linear-gradient"/><clipPath id="clip-path-2"><path class="cls-1" d="M354.7,369.35V411C354.7,282.53,241.07,178,101.36,178V136.4C241.07,136.43,354.7,240.93,354.7,369.35Z"/></clipPath><linearGradient id="linear-gradient-4" x1="312.41" y1="457.01" x2="392.25" y2="457.01" xlink:href="#linear-gradient"/><linearGradient id="linear-gradient-5" x1="448.4" y1="570.79" x2="725.33" y2="570.79" xlink:href="#linear-gradient"/><linearGradient id="linear-gradient-6" x1="280.78" y1="609.77" x2="354.7" y2="609.77" xlink:href="#linear-gradient"/><linearGradient id="linear-gradient-8" x1="61.39" y1="825.43" x2="392.25" y2="825.43" xlink:href="#linear-gradient"/><linearGradient id="linear-gradient-9" x1="-147.84" y1="362.33" x2="461.18" y2="713.95" gradientUnits="userSpaceOnUse"><stop offset="0.01" stop-color="#996d29"/><stop offset="0.02" stop-color="#9b6f29"/><stop offset="0.09" stop-color="#bb8c2b"/><stop offset="0.17" stop-color="#d2a02d"/><stop offset="0.24" stop-color="#e0ad2e"/><stop offset="0.3" stop-color="#e5b12e"/><stop offset="0.32" stop-color="#e9bc41"/><stop offset="0.38" stop-color="#f2d873"/><stop offset="0.39" stop-color="#f3da77"/><stop offset="0.41" stop-color="#f4de80"/><stop offset="0.46" stop-color="#f8ea97"/><stop offset="0.49" stop-color="#fbf5ad"/><stop offset="0.52" stop-color="#f6e796"/><stop offset="0.57" stop-color="#edcd6e"/><stop offset="0.62" stop-color="#e6bb50"/><stop offset="0.67" stop-color="#e2b03e"/><stop offset="0.7" stop-color="#e1ac38"/><stop offset="0.73" stop-color="#d8a335"/><stop offset="0.78" stop-color="#c08c2f"/><stop offset="0.84" stop-color="#996623"/><stop offset="0.91" stop-color="#623214"/><stop offset="0.91" stop-color="#603013"/></linearGradient><linearGradient id="linear-gradient-10" x1="437.49" y1="948.34" x2="630.16" y2="948.34" xlink:href="#linear-gradient"/><linearGradient id="linear-gradient-11" x1="565.2" y1="1043.39" x2="711.02" y2="1043.39" xlink:href="#linear-gradient"/><linearGradient id="linear-gradient-12" x1="563.76" y1="852.55" x2="563.76" y2="1055.25" xlink:href="#linear-gradient"/><linearGradient id="linear-gradient-13" x1="61.38" y1="1043.39" x2="602.54" y2="1043.39" xlink:href="#linear-gradient"/><linearGradient id="linear-gradient-14" x1="381.67" y1="1043.39" x2="602.66" y2="1043.39" xlink:href="#linear-gradient"/><linearGradient id="linear-gradient-15" x1="295.84" y1="211.92" x2="939.97" y2="856.05" gradientUnits="userSpaceOnUse"><stop offset="0" stop-color="#996d29"/><stop offset="0.04" stop-color="#ad7f2a"/><stop offset="0.09" stop-color="#c5952c"/><stop offset="0.16" stop-color="#d7a52d"/><stop offset="0.22" stop-color="#e2ae2e"/><stop offset="0.3" stop-color="#e5b12e"/><stop offset="0.32" stop-color="#e9bc41"/><stop offset="0.38" stop-color="#f2d873"/><stop offset="0.39" stop-color="#f3da77"/><stop offset="0.41" stop-color="#f4de80"/><stop offset="0.46" stop-color="#f8ea97"/><stop offset="0.49" stop-color="#fbf5ad"/><stop offset="0.52" stop-color="#f6e796"/><stop offset="0.57" stop-color="#edcd6e"/><stop offset="0.62" stop-color="#e6bb50"/><stop offset="0.67" stop-color="#e2b03e"/><stop offset="0.7" stop-color="#e1ac38"/><stop offset="0.72" stop-color="#d8a335"/><stop offset="0.76" stop-color="#c08c2f"/><stop offset="0.81" stop-color="#996623"/><stop offset="0.87" stop-color="#623214"/><stop offset="0.87" stop-color="#603013"/></linearGradient><linearGradient id="linear-gradient-16" x1="270.41" y1="1022.6" x2="270.41" y2="794.97" xlink:href="#linear-gradient"/></defs><g class="cls-3"><g id="Layer_2" data-name="Layer 2"><g class="cls-3"><path class="cls-2" d="M354.7,369.35V411C354.7,282.53,241.07,178,101.36,178V136.4C241.07,136.43,354.7,240.93,354.7,369.35Z"/><g class="cls-4"><g class="cls-3"><path class="cls-5" d="M354.7,369.35v41.59C354.7,282.53,241.07,178,101.36,178V136.4c139.71,0,253.34,104.53,253.34,233"/></g></g><g class="cls-6"><path class="cls-1" d="M354.7,369.35V411C354.7,282.53,241.07,178,101.36,178V136.4C241.07,136.43,354.7,240.93,354.7,369.35Z"/><g class="cls-7"><g class="cls-3"><path class="cls-1" d="M354.7,369.35v41.59C354.7,282.53,241.07,178,101.36,178V136.4c139.71,0,253.34,104.53,253.34,233"/></g></g></g></g><path class="cls-8" d="M392.25,354.8v41.59a142,142,0,0,1-7.07,43.07Q377.32,464,360.79,490t-41.5,53a21.48,21.48,0,0,0-1.6,1.9s0,.06-.07.1a21.62,21.62,0,0,0-1.48,2v0h0c-.29.45-.55.93-.8,1.38a8.23,8.23,0,0,0-.58,1.09,24.63,24.63,0,0,0-1.29,3.18c-.19.61-.35,1.26-.48,1.87a6,6,0,0,0-.22,1.09,1.91,1.91,0,0,0-.1.64,7.68,7.68,0,0,0-.13,1.13,17.47,17.47,0,0,0-.1,1.76V517.62a17.47,17.47,0,0,1,.1-1.76,7.25,7.25,0,0,1,.13-1.13,1.91,1.91,0,0,1,.1-.64A10.52,10.52,0,0,1,313,513c.13-.61.29-1.19.48-1.8v-.07c.16-.48.32-1,.52-1.48l.51-1.18c.07-.13.13-.26.19-.39.2-.42.42-.8.65-1.22s.51-.93.8-1.38h0a30,30,0,0,1,3.15-4.09v0q25-27,41.5-52.94t24.39-50.55A142,142,0,0,0,392.25,354.8Z"/><g class="cls-6"><path class="cls-1" d="M392.25,354.8v41.59a142,142,0,0,1-7.07,43.07Q377.32,464,360.79,490t-41.5,53a21.48,21.48,0,0,0-1.6,1.9s0,.06-.07.1a21.62,21.62,0,0,0-1.48,2v0h0c-.29.45-.55.93-.8,1.38a8.23,8.23,0,0,0-.58,1.09,24.63,24.63,0,0,0-1.29,3.18c-.19.61-.35,1.26-.48,1.87a6,6,0,0,0-.22,1.09,1.91,1.91,0,0,0-.1.64,7.68,7.68,0,0,0-.13,1.13,17.47,17.47,0,0,0-.1,1.76V517.62a17.47,17.47,0,0,1,.1-1.76,7.25,7.25,0,0,1,.13-1.13,1.91,1.91,0,0,1,.1-.64A10.52,10.52,0,0,1,313,513c.13-.61.29-1.19.48-1.8v-.07c.16-.48.32-1,.52-1.48l.51-1.18c.07-.13.13-.26.19-.39.2-.42.42-.8.65-1.22s.51-.93.8-1.38h0a30,30,0,0,1,3.15-4.09v0q25-27,41.5-52.94t24.39-50.55A142,142,0,0,0,392.25,354.8Z"/></g><polygon class="cls-9" points="653.82 595.02 586.87 549.83 519.85 595.02 480.03 621.89 463.09 633.37 448.4 612.92 448.4 571.33 463.09 591.77 480.03 580.3 519.85 553.43 586.87 508.21 653.82 553.43 693.67 580.3 710.61 591.77 725.33 571.33 725.33 612.92 710.61 633.37 693.67 621.89 653.82 595.02"/><g class="cls-6"><polygon class="cls-1" points="653.82 595.02 586.87 549.83 519.85 595.02 480.03 621.89 463.09 633.37 448.4 612.92 448.4 571.33 463.09 591.77 480.03 580.3 519.85 553.43 586.87 508.21 653.82 553.43 693.67 580.3 710.61 591.77 725.33 571.33 725.33 612.92 710.61 633.37 693.67 621.89 653.82 595.02"/></g><path class="cls-10" d="M280.78,559.1V517.51c0,4.54,1.87,9.08,5.59,13.32,34.6,39.23,68.33,81.53,68.33,129.62V702c0-48.09-33.73-90.39-68.33-129.62C282.65,568.18,280.78,563.64,280.78,559.1Z"/><path class="cls-10" d="M354.7,660.45V702c0-48.09-33.73-90.39-68.33-129.62-3.72-4.24-5.59-8.78-5.59-13.32V517.51c0,4.54,1.87,9.08,5.59,13.32,34.6,39.23,68.33,81.53,68.33,129.62"/><g class="cls-6"><path class="cls-1" d="M354.7,660.45V702c0-48.09-33.73-90.39-68.33-129.62-3.72-4.24-5.59-8.78-5.59-13.32V517.51c0,4.54,1.87,9.08,5.59,13.32,34.6,39.23,68.33,81.53,68.33,129.62"/></g><polygon class="cls-11" points="101.36 136.4 101.36 178 99.71 934.1 99.71 892.5 101.36 136.4"/><path class="cls-12" d="M392.25,675v41.59a209.94,209.94,0,0,1-10,64.09A227.08,227.08,0,0,1,360,829.3c-.83,1.41-1.7,2.8-2.57,4.21-3.57,5.56-7.39,11.06-11.44,16.36a276.16,276.16,0,0,1-33.14,36.51c-61.33,56.67-150.1,89.45-246.59,89.45H61.39V934.24h4.82c96.49,0,185.26-32.78,246.59-89.45a276.16,276.16,0,0,0,33.14-36.51c4.05-5.3,7.87-10.8,11.44-16.39.87-1.38,1.74-2.77,2.57-4.18a227.08,227.08,0,0,0,22.34-48.6A209.94,209.94,0,0,0,392.25,675Z"/><g class="cls-6"><path class="cls-1" d="M392.25,675v41.59a209.94,209.94,0,0,1-10,64.09A227.08,227.08,0,0,1,360,829.3c-.83,1.41-1.7,2.8-2.57,4.21-3.57,5.56-7.39,11.06-11.44,16.36a276.16,276.16,0,0,1-33.14,36.51c-61.33,56.67-150.1,89.45-246.59,89.45H61.39V934.24h4.82c96.49,0,185.26-32.78,246.59-89.45a276.16,276.16,0,0,0,33.14-36.51c4.05-5.3,7.87-10.8,11.44-16.39.87-1.38,1.74-2.77,2.57-4.18a227.08,227.08,0,0,0,22.34-48.6A209.94,209.94,0,0,0,392.25,675Z"/></g><path class="cls-13" d="M319.29,501.38c-9.23,10-9.17,22.77.18,32.6,31.24,32.81,72.78,83.13,72.78,141,0,39.51-10.85,77.4-32.29,112.69a234.92,234.92,0,0,1-14,20.57c-59.53,78.85-164.07,125.93-279.72,126H61.38v-836l2.8-2.74c181.84,0,328.07,116.32,328.07,259.24C392.25,399.72,367.69,449,319.29,501.38ZM99.71,892.5c141.36.9,255-103.61,255-232,0-48.09-33.73-90.39-68.33-129.62-7.34-8.36-7.46-17.91-.29-26.27,34-39.48,68.62-86.45,68.62-135.21,0-128.42-113.63-232.92-253.34-232.95L99.71,892.5"/><polygon class="cls-14" points="519.85 945.34 519.85 986.93 479.43 951.33 479.43 909.74 519.85 945.34"/><g class="cls-6"><polygon class="cls-1" points="519.85 945.34 519.85 986.93 479.43 951.33 479.43 909.74 519.85 945.34"/></g><rect class="cls-15" x="653.81" y="1022.6" width="39.86" height="41.59"/><g class="cls-6"><rect class="cls-1" x="653.81" y="1022.6" width="39.86" height="41.59"/></g><polygon class="cls-16" points="519.85 945.34 607.67 1022.6 519.85 1022.6 519.85 945.34"/><rect class="cls-17" x="61.38" y="1022.6" width="417.82" height="41.59"/><g class="cls-6"><rect class="cls-1" x="61.38" y="1022.6" width="417.82" height="41.59"/></g><rect class="cls-18" x="519.84" y="1022.6" width="87.82" height="41.59"/><g class="cls-6"><rect class="cls-1" x="519.84" y="1022.6" width="87.82" height="41.59"/></g><polygon class="cls-19" points="693.67 95.53 693.67 549.99 725.34 571.34 710.62 591.77 693.67 580.31 693.67 1022.6 653.81 1022.6 653.81 553.43 586.87 508.22 519.85 553.43 519.85 945.34 479.43 909.74 480.04 580.31 463.09 591.77 448.39 571.34 480.07 549.97 480.07 95.55 519.85 95.55 519.85 523.14 586.84 477.96 653.81 523.14 653.81 95.53 693.67 95.53"/><polygon class="cls-11" points="479.43 909.74 479.43 951.33 479.2 1064.19 479.2 1022.6 479.43 909.74"/><path class="cls-20" d="M411.8,850.25l67.63,59.49-.23,112.86H61.38v-16.18c146.46-3.27,254.56-57.28,325.28-127.19a245.33,245.33,0,0,0,18-19.7C407.12,856.48,409.46,853.41,411.8,850.25Z"/><text class="cls-21" transform="translate(998.88 595.42)">BENDI<tspan class="cls-22" x="1593.96" y="0">X</tspan><tspan x="1921.6" y="0" xml:space="preserve"> H</tspan><tspan class="cls-23" x="2470.97" y="0">O</tspan><tspan class="cls-24" x="2834.19" y="0">TE</tspan><tspan class="cls-25" x="3474.07" y="0">L</tspan></text><text class="cls-26" transform="translate(998.88 595.42)">BENDI<tspan class="cls-22" x="1593.96" y="0">X</tspan><tspan x="1921.6" y="0" xml:space="preserve"> H</tspan><tspan class="cls-23" x="2470.97" y="0">O</tspan><tspan class="cls-24" x="2834.19" y="0">TE</tspan><tspan class="cls-25" x="3474.07" y="0">L</tspan></text><text class="cls-27" transform="translate(2067.38 864.82) scale(0.91 1)">S<tspan class="cls-28" x="131.62" y="0">AN FERNANDO</tspan></text><text class="cls-27" transform="translate(2067.38 864.82) scale(0.91 1)">S<tspan class="cls-28" x="131.62" y="0">AN FERNANDO</tspan></text></g></g></svg>