<svg xmlns="http://www.w3.org/2000/svg" xmlns:xlink="http://www.w3.org/1999/xlink" viewBox="0 0 761.62 367"><defs><style>.cls-1{fill:#606161;}.cls-2{fill:url(#linear-gradient);}.cls-3{isolation:isolate;}.cls-4{fill:#d1a52a;}.cls-5{clip-path:url(#clip-path);}.cls-6{fill:url(#linear-gradient-3);}.cls-7{opacity:0.6;mix-blend-mode:multiply;}.cls-8{clip-path:url(#clip-path-2);}.cls-9{fill:url(#linear-gradient-4);}.cls-10{fill:url(#linear-gradient-5);}.cls-11{fill:url(#linear-gradient-6);}.cls-12{fill:#86721c;}.cls-13{fill:url(#linear-gradient-8);}.cls-14{fill:url(#linear-gradient-9);}.cls-15{fill:url(#linear-gradient-10);}.cls-16{fill:url(#linear-gradient-11);}.cls-17{fill:url(#linear-gradient-12);}.cls-18{fill:url(#linear-gradient-13);}.cls-19{fill:url(#linear-gradient-14);}.cls-20{fill:url(#linear-gradient-15);}.cls-21{fill:url(#linear-gradient-16);}</style><linearGradient id="linear-gradient" x1="34.14" y1="81.79" x2="118.76" y2="81.79" gradientUnits="userSpaceOnUse"><stop offset="0.01" stop-color="#986d29"/><stop offset="0.02" stop-color="#9a6f29"/><stop offset="0.09" stop-color="#ba8b2b"/><stop offset="0.17" stop-color="#d19f2c"/><stop offset="0.24" stop-color="#dfac2d"/><stop offset="0.3" stop-color="#e4b02d"/><stop offset="0.32" stop-color="#e8bb40"/><stop offset="0.38" stop-color="#f1d672"/><stop offset="0.39" stop-color="#f2d977"/><stop offset="0.41" stop-color="#f3dd80"/><stop offset="0.46" stop-color="#f7e997"/><stop offset="0.49" stop-color="#faf4ac"/><stop offset="0.52" stop-color="#f5e695"/><stop offset="0.57" stop-color="#eccc6d"/><stop offset="0.62" stop-color="#e5ba4f"/><stop offset="0.67" stop-color="#e1af3d"/><stop offset="0.7" stop-color="#e0ab37"/><stop offset="0.72" stop-color="#d7a234"/><stop offset="0.76" stop-color="#bf8b2e"/><stop offset="0.81" stop-color="#986523"/><stop offset="0.87" stop-color="#613013"/><stop offset="0.87" stop-color="#602f13"/></linearGradient><clipPath id="clip-path"><path class="cls-2" d="M118.76,113.75v13.9c0-42.9-37.95-77.81-84.62-77.81V35.94C80.81,36,118.76,70.86,118.76,113.75Z"/></clipPath><linearGradient id="linear-gradient-3" x1="34.14" y1="81.79" x2="118.76" y2="81.79" xlink:href="#linear-gradient"/><clipPath id="clip-path-2"><path class="cls-1" d="M118.76,113.75v13.9c0-42.9-37.95-77.81-84.62-77.81V35.94C80.81,36,118.76,70.86,118.76,113.75Z"/></clipPath><linearGradient id="linear-gradient-4" x1="104.64" y1="143.03" x2="131.3" y2="143.03" xlink:href="#linear-gradient"/><linearGradient id="linear-gradient-5" x1="150.06" y1="181.04" x2="242.56" y2="181.04" xlink:href="#linear-gradient"/><linearGradient id="linear-gradient-6" x1="94.07" y1="194.06" x2="118.76" y2="194.06" xlink:href="#linear-gradient"/><linearGradient id="linear-gradient-8" x1="20.79" y1="266.09" x2="131.3" y2="266.09" xlink:href="#linear-gradient"/><linearGradient id="linear-gradient-9" x1="-49.1" y1="111.41" x2="154.33" y2="228.86" gradientUnits="userSpaceOnUse"><stop offset="0.01" stop-color="#986d29"/><stop offset="0.02" stop-color="#9a6f29"/><stop offset="0.09" stop-color="#ba8b2b"/><stop offset="0.17" stop-color="#d19f2c"/><stop offset="0.24" stop-color="#dfac2d"/><stop offset="0.3" stop-color="#e4b02d"/><stop offset="0.32" stop-color="#e8bb40"/><stop offset="0.38" stop-color="#f1d672"/><stop offset="0.39" stop-color="#f2d977"/><stop offset="0.41" stop-color="#f3dd80"/><stop offset="0.46" stop-color="#f7e997"/><stop offset="0.49" stop-color="#faf4ac"/><stop offset="0.52" stop-color="#f5e695"/><stop offset="0.57" stop-color="#eccc6d"/><stop offset="0.62" stop-color="#e5ba4f"/><stop offset="0.67" stop-color="#e1af3d"/><stop offset="0.7" stop-color="#e0ab37"/><stop offset="0.73" stop-color="#d7a234"/><stop offset="0.78" stop-color="#bf8b2e"/><stop offset="0.84" stop-color="#986523"/><stop offset="0.91" stop-color="#613013"/><stop offset="0.91" stop-color="#602f13"/></linearGradient><linearGradient id="linear-gradient-10" x1="146.42" y1="307.15" x2="210.77" y2="307.15" xlink:href="#linear-gradient"/><linearGradient id="linear-gradient-11" x1="189.07" y1="338.9" x2="237.78" y2="338.9" xlink:href="#linear-gradient"/><linearGradient id="linear-gradient-12" x1="188.59" y1="275.15" x2="188.59" y2="342.86" xlink:href="#linear-gradient"/><linearGradient id="linear-gradient-13" x1="20.78" y1="338.9" x2="201.55" y2="338.9" xlink:href="#linear-gradient"/><linearGradient id="linear-gradient-14" x1="127.77" y1="338.9" x2="201.59" y2="338.9" xlink:href="#linear-gradient"/><linearGradient id="linear-gradient-15" x1="99.1" y1="61.17" x2="314.25" y2="276.32" gradientUnits="userSpaceOnUse"><stop offset="0" stop-color="#986d29"/><stop offset="0.04" stop-color="#ac7e2a"/><stop offset="0.09" stop-color="#c4942b"/><stop offset="0.16" stop-color="#d6a42c"/><stop offset="0.22" stop-color="#e1ad2d"/><stop offset="0.3" stop-color="#e4b02d"/><stop offset="0.32" stop-color="#e8bb40"/><stop offset="0.38" stop-color="#f1d672"/><stop offset="0.39" stop-color="#f2d977"/><stop offset="0.41" stop-color="#f3dd80"/><stop offset="0.46" stop-color="#f7e997"/><stop offset="0.49" stop-color="#faf4ac"/><stop offset="0.52" stop-color="#f5e695"/><stop offset="0.57" stop-color="#eccc6d"/><stop offset="0.62" stop-color="#e5ba4f"/><stop offset="0.67" stop-color="#e1af3d"/><stop offset="0.7" stop-color="#e0ab37"/><stop offset="0.72" stop-color="#d7a234"/><stop offset="0.76" stop-color="#bf8b2e"/><stop offset="0.81" stop-color="#986523"/><stop offset="0.87" stop-color="#613013"/><stop offset="0.87" stop-color="#602f13"/></linearGradient><linearGradient id="linear-gradient-16" x1="90.6" y1="331.95" x2="90.6" y2="255.92" xlink:href="#linear-gradient"/></defs><g class="cls-3"><g id="Layer_1" data-name="Layer 1"><path d="M347,129.38a19.35,19.35,0,0,1-2,9,20.53,20.53,0,0,1-5.48,6.71,24.57,24.57,0,0,1-8.11,4.2,33.08,33.08,0,0,1-9.91,1.46H281.86V67.9h42.7a16.38,16.38,0,0,1,7.81,1.86,19.41,19.41,0,0,1,5.95,4.85,21.86,21.86,0,0,1,3.79,6.76A22.67,22.67,0,0,1,343.46,89a22.25,22.25,0,0,1-3.1,11.38,18.83,18.83,0,0,1-8.8,7.87,21.06,21.06,0,0,1,11.25,7.64A21.91,21.91,0,0,1,347,129.38Zm-52-50.17v24.38h24a10.71,10.71,0,0,0,4.49-.93,12.3,12.3,0,0,0,3.62-2.51,11.07,11.07,0,0,0,2.45-3.79,13.27,13.27,0,0,0,.87-4.9,12.87,12.87,0,0,0-3-8.81,9.84,9.84,0,0,0-7.7-3.44Zm38.61,47.72a13.89,13.89,0,0,0-.87-4.9,14.23,14.23,0,0,0-2.34-4.09,11,11,0,0,0-3.56-2.8,10,10,0,0,0-4.55-1H294.93v25.32h26.48a11.59,11.59,0,0,0,4.78-1,12.19,12.19,0,0,0,3.85-2.69,12.53,12.53,0,0,0,2.57-4A12.68,12.68,0,0,0,333.54,126.93Z"/><path d="M426.17,139.18v11.55H369.35V67.9h55.77V79.45h-42.7V103h37v10.85h-37v25.32Z"/><path d="M461.51,92.4v58.33H448.45V67.9h10.26l47.37,59.73V68h13.18v82.72H508.41Z"/><path d="M546.67,150.73V67.9h29.4a44,44,0,0,1,17.56,3.26A36.19,36.19,0,0,1,606.23,80a37.2,37.2,0,0,1,7.64,13.12,49.43,49.43,0,0,1,2.57,16,48.58,48.58,0,0,1-2.86,17.09,37.39,37.39,0,0,1-8.11,13.07,35.91,35.91,0,0,1-12.71,8.4,44.81,44.81,0,0,1-16.69,3Zm56.47-41.54a38.34,38.34,0,0,0-1.81-12A26.18,26.18,0,0,0,596,87.79a24.61,24.61,0,0,0-8.51-6.13,28.2,28.2,0,0,0-11.44-2.21H559.74v59.73h16.33a28,28,0,0,0,11.61-2.28,24.06,24.06,0,0,0,8.52-6.3,27.19,27.19,0,0,0,5.19-9.51A39.11,39.11,0,0,0,603.14,109.19Z"/><path d="M639,150.73V67.9H652v82.83Z"/><path d="M684.56,67.9l23,32.66,23-32.66h14.35l-30.34,42,29.4,40.84H729.59l-22-31.5-22,31.5H671l29.52-40.84-30.45-42Z"/><path d="M349.87,207.89v82.83H336.69V254.2H294.93v36.52H281.86V207.89h13.07v34.65h41.76V207.89Z"/><path d="M411.7,291.3a36.39,36.39,0,0,1-16.16-3.56A40.2,40.2,0,0,1,383,278.29a42.52,42.52,0,0,1-8.1-13.47A43.6,43.6,0,0,1,372,249.3a42.33,42.33,0,0,1,3-15.86A44,44,0,0,1,383.41,220a39.77,39.77,0,0,1,12.6-9.27,36.74,36.74,0,0,1,15.92-3.44A35.39,35.39,0,0,1,428.09,211a40.74,40.74,0,0,1,12.48,9.62,44.11,44.11,0,0,1,8.05,13.48,43.2,43.2,0,0,1-.11,31.2,42.1,42.1,0,0,1-8.34,13.36,41,41,0,0,1-12.66,9.22A36.62,36.62,0,0,1,411.7,291.3Zm-26.36-42a35,35,0,0,0,1.86,11.32,30.9,30.9,0,0,0,5.31,9.68,25.94,25.94,0,0,0,8.34,6.71,23.75,23.75,0,0,0,11,2.51A23,23,0,0,0,423,276.89a26.07,26.07,0,0,0,8.22-6.94,31.26,31.26,0,0,0,5.14-9.68,35.36,35.36,0,0,0,1.75-11,34.8,34.8,0,0,0-1.87-11.37,30,30,0,0,0-5.31-9.57,26.54,26.54,0,0,0-8.28-6.65,24.81,24.81,0,0,0-22,.12,26.56,26.56,0,0,0-8.28,6.82,30.64,30.64,0,0,0-5.2,9.63A34.75,34.75,0,0,0,385.34,249.3Z"/><path d="M530.7,219.44H503.16v71.28H490V219.44H462.33V207.89H530.7Z"/><path d="M607.34,279.17v11.55H550.53V207.89h55.76v11.55h-42.7V243h37v10.85h-37v25.32Z"/><path d="M629.62,290.72V207.89h13.07v71.28h44.44v11.55Z"/><path class="cls-4" d="M347,129.38a19.35,19.35,0,0,1-2,9,20.53,20.53,0,0,1-5.48,6.71,24.57,24.57,0,0,1-8.11,4.2,33.08,33.08,0,0,1-9.91,1.46H281.86V67.9h42.7a16.38,16.38,0,0,1,7.81,1.86,19.41,19.41,0,0,1,5.95,4.85,21.86,21.86,0,0,1,3.79,6.76A22.67,22.67,0,0,1,343.46,89a22.25,22.25,0,0,1-3.1,11.38,18.83,18.83,0,0,1-8.8,7.87,21.06,21.06,0,0,1,11.25,7.64A21.91,21.91,0,0,1,347,129.38Zm-52-50.17v24.38h24a10.71,10.71,0,0,0,4.49-.93,12.3,12.3,0,0,0,3.62-2.51,11.07,11.07,0,0,0,2.45-3.79,13.27,13.27,0,0,0,.87-4.9,12.87,12.87,0,0,0-3-8.81,9.84,9.84,0,0,0-7.7-3.44Zm38.61,47.72a13.89,13.89,0,0,0-.87-4.9,14.23,14.23,0,0,0-2.34-4.09,11,11,0,0,0-3.56-2.8,10,10,0,0,0-4.55-1H294.93v25.32h26.48a11.59,11.59,0,0,0,4.78-1,12.19,12.19,0,0,0,3.85-2.69,12.53,12.53,0,0,0,2.57-4A12.68,12.68,0,0,0,333.54,126.93Z"/><path class="cls-4" d="M426.17,139.18v11.55H369.35V67.9h55.77V79.45h-42.7V103h37v10.85h-37v25.32Z"/><path class="cls-4" d="M461.51,92.4v58.33H448.45V67.9h10.26l47.37,59.73V68h13.18v82.72H508.41Z"/><path class="cls-4" d="M546.67,150.73V67.9h29.4a44,44,0,0,1,17.56,3.26A36.19,36.19,0,0,1,606.23,80a37.2,37.2,0,0,1,7.64,13.12,49.43,49.43,0,0,1,2.57,16,48.58,48.58,0,0,1-2.86,17.09,37.39,37.39,0,0,1-8.11,13.07,35.91,35.91,0,0,1-12.71,8.4,44.81,44.81,0,0,1-16.69,3Zm56.47-41.54a38.34,38.34,0,0,0-1.81-12A26.18,26.18,0,0,0,596,87.79a24.61,24.61,0,0,0-8.51-6.13,28.2,28.2,0,0,0-11.44-2.21H559.74v59.73h16.33a28,28,0,0,0,11.61-2.28,24.06,24.06,0,0,0,8.52-6.3,27.19,27.19,0,0,0,5.19-9.51A39.11,39.11,0,0,0,603.14,109.19Z"/><path class="cls-4" d="M639,150.73V67.9H652v82.83Z"/><path class="cls-4" d="M684.56,67.9l23,32.66,23-32.66h14.35l-30.34,42,29.4,40.84H729.59l-22-31.5-22,31.5H671l29.52-40.84-30.45-42Z"/><path class="cls-4" d="M349.87,207.89v82.83H336.69V254.2H294.93v36.52H281.86V207.89h13.07v34.65h41.76V207.89Z"/><path class="cls-4" d="M411.7,291.3a36.39,36.39,0,0,1-16.16-3.56A40.2,40.2,0,0,1,383,278.29a42.52,42.52,0,0,1-8.1-13.47A43.6,43.6,0,0,1,372,249.3a42.33,42.33,0,0,1,3-15.86A44,44,0,0,1,383.41,220a39.77,39.77,0,0,1,12.6-9.27,36.74,36.74,0,0,1,15.92-3.44A35.39,35.39,0,0,1,428.09,211a40.74,40.74,0,0,1,12.48,9.62,44.11,44.11,0,0,1,8.05,13.48,43.2,43.2,0,0,1-.11,31.2,42.1,42.1,0,0,1-8.34,13.36,41,41,0,0,1-12.66,9.22A36.62,36.62,0,0,1,411.7,291.3Zm-26.36-42a35,35,0,0,0,1.86,11.32,30.9,30.9,0,0,0,5.31,9.68,25.94,25.94,0,0,0,8.34,6.71,23.75,23.75,0,0,0,11,2.51A23,23,0,0,0,423,276.89a26.07,26.07,0,0,0,8.22-6.94,31.26,31.26,0,0,0,5.14-9.68,35.36,35.36,0,0,0,1.75-11,34.8,34.8,0,0,0-1.87-11.37,30,30,0,0,0-5.31-9.57,26.54,26.54,0,0,0-8.28-6.65,24.81,24.81,0,0,0-22,.12,26.56,26.56,0,0,0-8.28,6.82,30.64,30.64,0,0,0-5.2,9.63A34.75,34.75,0,0,0,385.34,249.3Z"/><path class="cls-4" d="M530.7,219.44H503.16v71.28H490V219.44H462.33V207.89H530.7Z"/><path class="cls-4" d="M607.34,279.17v11.55H550.53V207.89h55.76v11.55h-42.7V243h37v10.85h-37v25.32Z"/><path class="cls-4" d="M629.62,290.72V207.89h13.07v71.28h44.44v11.55Z"/><g class="cls-3"><path class="cls-2" d="M118.76,113.75v13.9c0-42.9-37.95-77.81-84.62-77.81V35.94C80.81,36,118.76,70.86,118.76,113.75Z"/><g class="cls-5"><g class="cls-3"><path class="cls-6" d="M118.76,113.75v13.9c0-42.9-37.95-77.81-84.62-77.81V35.94c46.67,0,84.62,34.92,84.62,77.81"/></g></g><g class="cls-7"><path class="cls-1" d="M118.76,113.75v13.9c0-42.9-37.95-77.81-84.62-77.81V35.94C80.81,36,118.76,70.86,118.76,113.75Z"/><g class="cls-8"><g class="cls-3"><path class="cls-1" d="M118.76,113.75v13.9c0-42.9-37.95-77.81-84.62-77.81V35.94c46.67,0,84.62,34.92,84.62,77.81"/></g></g></g></g><path class="cls-9" d="M131.3,108.89v13.89a47.33,47.33,0,0,1-2.36,14.39,73.27,73.27,0,0,1-8.15,16.89,125.32,125.32,0,0,1-13.86,17.69,7.69,7.69,0,0,0-.53.63l0,0a6.23,6.23,0,0,0-.5.68h0c-.1.15-.18.31-.27.46a3.24,3.24,0,0,0-.19.37A8.72,8.72,0,0,0,105,175c-.06.21-.12.42-.16.63a2.09,2.09,0,0,0-.08.36.71.71,0,0,0,0,.21,2.58,2.58,0,0,0,0,.38,5.83,5.83,0,0,0,0,.59V163.28a5.83,5.83,0,0,1,0-.59,2.45,2.45,0,0,1,0-.38.71.71,0,0,1,0-.21c0-.12.05-.25.08-.37s.1-.39.16-.6v0c0-.16.11-.33.17-.49s.12-.27.17-.4l.07-.13c.06-.14.14-.27.21-.41s.17-.31.27-.46h0a10.78,10.78,0,0,1,1.05-1.36h0a125.32,125.32,0,0,0,13.86-17.69,73,73,0,0,0,8.15-16.88A47.33,47.33,0,0,0,131.3,108.89Z"/><g class="cls-7"><path class="cls-1" d="M131.3,108.89v13.89a47.33,47.33,0,0,1-2.36,14.39,73.27,73.27,0,0,1-8.15,16.89,125.32,125.32,0,0,1-13.86,17.69,7.69,7.69,0,0,0-.53.63l0,0a6.23,6.23,0,0,0-.5.68h0c-.1.15-.18.31-.27.46a3.24,3.24,0,0,0-.19.37A8.72,8.72,0,0,0,105,175c-.06.21-.12.42-.16.63a2.09,2.09,0,0,0-.08.36.71.71,0,0,0,0,.21,2.58,2.58,0,0,0,0,.38,5.83,5.83,0,0,0,0,.59V163.28a5.83,5.83,0,0,1,0-.59,2.45,2.45,0,0,1,0-.38.71.71,0,0,1,0-.21c0-.12.05-.25.08-.37s.1-.39.16-.6v0c0-.16.11-.33.17-.49s.12-.27.17-.4l.07-.13c.06-.14.14-.27.21-.41s.17-.31.27-.46h0a10.78,10.78,0,0,1,1.05-1.36h0a125.32,125.32,0,0,0,13.86-17.69,73,73,0,0,0,8.15-16.88A47.33,47.33,0,0,0,131.3,108.89Z"/></g><polygon class="cls-10" points="218.67 189.13 196.31 174.04 173.93 189.13 160.63 198.11 154.97 201.94 150.06 195.11 150.06 181.22 154.97 188.05 160.63 184.21 173.93 175.24 196.31 160.13 218.67 175.24 231.99 184.21 237.65 188.05 242.56 181.22 242.56 195.11 237.65 201.94 231.99 198.11 218.67 189.13"/><g class="cls-7"><polygon class="cls-1" points="218.67 189.13 196.31 174.04 173.93 189.13 160.63 198.11 154.97 201.94 150.06 195.11 150.06 181.22 154.97 188.05 160.63 184.21 173.93 175.24 196.31 160.13 218.67 175.24 231.99 184.21 237.65 188.05 242.56 181.22 242.56 195.11 237.65 201.94 231.99 198.11 218.67 189.13"/></g><path class="cls-11" d="M94.07,177.13V163.24a6.72,6.72,0,0,0,1.87,4.45c11.55,13.1,22.82,27.23,22.82,43.29v13.9c0-16.06-11.27-30.19-22.82-43.3A6.7,6.7,0,0,1,94.07,177.13Z"/><path class="cls-11" d="M118.76,211v13.9c0-16.06-11.27-30.19-22.82-43.3a6.7,6.7,0,0,1-1.87-4.45V163.24a6.72,6.72,0,0,0,1.87,4.45c11.55,13.1,22.82,27.23,22.82,43.29"/><g class="cls-7"><path class="cls-1" d="M118.76,211v13.9c0-16.06-11.27-30.19-22.82-43.3a6.7,6.7,0,0,1-1.87-4.45V163.24a6.72,6.72,0,0,0,1.87,4.45c11.55,13.1,22.82,27.23,22.82,43.29"/></g><polygon class="cls-12" points="34.14 35.94 34.14 49.84 33.59 302.39 33.59 288.5 34.14 35.94"/><path class="cls-13" d="M131.3,215.85v13.9a70.1,70.1,0,0,1-3.32,21.4,76.7,76.7,0,0,1-7.46,16.24c-.28.47-.57.93-.86,1.4-1.2,1.86-2.47,3.7-3.83,5.47a91.69,91.69,0,0,1-11.06,12.19c-20.49,18.93-50.14,29.88-82.37,29.88H20.79V302.44H22.4c32.23,0,61.88-10.95,82.37-29.88a92.4,92.4,0,0,0,11.06-12.2c1.36-1.77,2.63-3.6,3.83-5.47.29-.46.58-.92.86-1.4A76.63,76.63,0,0,0,128,237.26,70.16,70.16,0,0,0,131.3,215.85Z"/><g class="cls-7"><path class="cls-1" d="M131.3,215.85v13.9a70.1,70.1,0,0,1-3.32,21.4,76.7,76.7,0,0,1-7.46,16.24c-.28.47-.57.93-.86,1.4-1.2,1.86-2.47,3.7-3.83,5.47a91.69,91.69,0,0,1-11.06,12.19c-20.49,18.93-50.14,29.88-82.37,29.88H20.79V302.44H22.4c32.23,0,61.88-10.95,82.37-29.88a92.4,92.4,0,0,0,11.06-12.2c1.36-1.77,2.63-3.6,3.83-5.47.29-.46.58-.92.86-1.4A76.63,76.63,0,0,0,128,237.26,70.16,70.16,0,0,0,131.3,215.85Z"/></g><path class="cls-14" d="M106.93,157.85a7.54,7.54,0,0,0,.06,10.89c10.44,11,24.31,27.77,24.31,47.12a71.65,71.65,0,0,1-10.78,37.64,79.41,79.41,0,0,1-4.69,6.87C96,286.7,61,302.43,22.4,302.44H20.78V23.21l.94-.91c60.74,0,109.58,38.85,109.58,86.59C131.3,123.9,123.1,140.36,106.93,157.85ZM33.59,288.5c47.22.3,85.17-34.61,85.17-77.52,0-16.06-11.27-30.19-22.82-43.29-2.46-2.79-2.49-6-.1-8.77,11.35-13.19,22.92-28.88,22.92-45.17,0-42.89-37.95-77.8-84.62-77.81L33.59,288.5"/><polygon class="cls-15" points="173.92 306.15 173.92 320.04 160.43 308.15 160.43 294.25 173.92 306.15"/><g class="cls-7"><polygon class="cls-1" points="173.92 306.15 173.92 320.04 160.43 308.15 160.43 294.25 173.92 306.15"/></g><rect class="cls-16" x="218.67" y="331.95" width="13.31" height="13.89"/><g class="cls-7"><rect class="cls-1" x="218.67" y="331.95" width="13.31" height="13.89"/></g><polygon class="cls-17" points="173.92 306.15 203.26 331.95 173.92 331.95 173.92 306.15"/><rect class="cls-18" x="20.78" y="331.95" width="139.56" height="13.89"/><g class="cls-7"><rect class="cls-1" x="20.78" y="331.95" width="139.56" height="13.89"/></g><rect class="cls-19" x="173.92" y="331.95" width="29.33" height="13.89"/><g class="cls-7"><rect class="cls-1" x="173.92" y="331.95" width="29.33" height="13.89"/></g><polygon class="cls-20" points="231.99 22.29 231.99 174.09 242.56 181.22 237.65 188.04 231.99 184.22 231.99 331.95 218.67 331.95 218.67 175.24 196.31 160.14 173.92 175.24 173.92 306.15 160.43 294.25 160.63 184.22 154.97 188.04 150.06 181.22 160.64 174.08 160.64 22.3 173.92 22.3 173.92 165.12 196.3 150.03 218.67 165.12 218.67 22.29 231.99 22.29"/><polygon class="cls-12" points="160.43 294.25 160.43 308.15 160.35 345.85 160.35 331.95 160.43 294.25"/><path class="cls-21" d="M137.83,274.39l22.6,19.87L160.35,332H20.78v-5.4c48.92-1.09,85-19.14,108.66-42.49a81.62,81.62,0,0,0,6-6.58C136.27,276.47,137.05,275.44,137.83,274.39Z"/></g></g></svg>