<svg id="Layer_1" data-name="Layer 1" xmlns="http://www.w3.org/2000/svg" viewBox="0 0 1420 1594"><defs><style>.cls-1{fill:#595958;}</style></defs><path class="cls-1" d="M167,406a6.66,6.66,0,0,0-6.66,6.66V572.47a7.53,7.53,0,0,1-8,7.51,7.7,7.7,0,0,1-7-7.77V412.68a6.66,6.66,0,0,0-6.66-6.66h-1.26a6.66,6.66,0,0,0-6.66,6.66V572.94a7.53,7.53,0,0,1-8,7.51,7.7,7.7,0,0,1-7-7.77v-160A6.66,6.66,0,0,0,109,406h-1.26a6.66,6.66,0,0,0-6.66,6.66V573.41a7.53,7.53,0,0,1-8,7.51,7.7,7.7,0,0,1-7-7.77V412.68a6.66,6.66,0,0,0-13.32-.16L68.44,593.41a42.71,42.71,0,0,0,4.85,20.82c10,19.12,20.1,37.67,31.28,56.13,7.54,12.45,9,27.2,7.58,41.95l-33,402.83a88.47,88.47,0,0,0,4.59,38.4c6,16.7,15.45,34.91,40.41,34.91s34.41-18.21,40.41-34.91a88.47,88.47,0,0,0,4.59-38.4l-33-402.83c-1.48-15.45.37-30.9,8.68-43.71,12.36-19,22.55-38.83,33.33-58.79h0a22.57,22.57,0,0,0,2.73-11.46l-5.23-184A8.62,8.62,0,0,0,167,406Z"/><path class="cls-1" d="M1289.51,400.74c-3.11,251.18-16.13,496.1-40.9,733.6a98.67,98.67,0,0,0-.36,17.27c3.13,43.33,34.83,42.49,40.42,42,.78-.07,1.56-.09,2.35-.12,19.6-.84,29.15-17.91,33.77-32.89a92.29,92.29,0,0,0,3.85-31.13l-12-280.72A147.85,147.85,0,0,1,1334.35,772a142.64,142.64,0,0,0,17.23-68V565.29a317.61,317.61,0,0,0-8.47-73.6C1324.32,412.79,1289.51,400.74,1289.51,400.74Z"/><path class="cls-1" d="M714.13,326.23c-260.13,0-471,210.88-471,471s210.87,471,471,471,471-210.87,471-471S974.25,326.23,714.13,326.23Zm0,781.43c-171.18,0-310.44-139.25-310.44-310.43S543,486.8,714.13,486.8s310.43,139.26,310.43,310.43S885.3,1107.66,714.13,1107.66Z"/><circle class="cls-1" cx="714.13" cy="797.23" r="274.75" transform="translate(-354.57 738.47) rotate(-45)"/></svg>