<svg id="Layer_1" data-name="Layer 1" xmlns="http://www.w3.org/2000/svg" viewBox="0 0 1420 1594"><defs><style>.cls-1{fill:#595958;}.cls-2{fill:#4d4d4d;}.cls-3,.cls-4,.cls-5,.cls-6{fill:none;stroke:#4d4d4d;stroke-linecap:round;stroke-miterlimit:10;stroke-width:11px;}.cls-4{stroke-dasharray:82.94 41.47;}.cls-5{stroke-dasharray:83.01 41.5;}.cls-6{stroke-dasharray:92.9 46.45;}</style></defs><path class="cls-1" d="M618,730.53V516.15H577.77c-1.34-34.84,32.16-61.63,32.16-61.63,50.9,67,123.25,42.87,123.25,42.87C646.1,454.52,652.8,413,652.8,413c18.75-26.8,65.64-32.16,65.64-32.16V271H425c-100.48,33.5-93.78,112.54-93.78,112.54h117.9V516.15H396.91V730.53C306,772.4,242.84,864.31,242.84,971v321.14A94.85,94.85,0,0,0,337.68,1387H677.19A94.85,94.85,0,0,0,772,1292.13V971C772,864.31,708.9,772.4,618,730.53Zm67,454.15H339.3V1032H685Z"/><rect class="cls-2" x="752.98" y="270.97" width="89.76" height="109.86"/><line class="cls-3" x1="1141.07" y1="207.49" x2="1096.3" y2="229.75"/><line class="cls-4" x1="1059.17" y1="248.21" x2="966.34" y2="294.38"/><polyline class="cls-3" points="947.77 303.61 903 325.87 947.77 348.14"/><line class="cls-5" x1="984.93" y1="366.62" x2="1077.84" y2="412.82"/><line class="cls-3" x1="1096.42" y1="422.06" x2="1141.19" y2="444.32"/><line class="cls-3" x1="903" y1="325.87" x2="953" y2="325.87"/><line class="cls-6" x1="999.45" y1="325.87" x2="1115.57" y2="325.87"/><line class="cls-3" x1="1138.79" y1="325.87" x2="1188.79" y2="325.87"/></svg>