<?xml version="1.0" standalone="no"?>
<!DOCTYPE svg PUBLIC "-//W3C//DTD SVG 20010904//EN"
 "http://www.w3.org/TR/2001/REC-SVG-20010904/DTD/svg10.dtd">
<svg version="1.0" xmlns="http://www.w3.org/2000/svg"
 width="820.000000pt" height="820.000000pt" viewBox="0 0 820.000000 820.000000"
 preserveAspectRatio="xMidYMid meet">
<metadata>
Created by potrace 1.11, written by Peter Selinger 2001-2013
</metadata>
<g transform="translate(0.000000,820.000000) scale(0.100000,-0.100000)"
fill="#000000" stroke="none">
<path d="M1464 7919 c-5 -8 -9 -1567 -9 -3466 l0 -3452 150 4 c161 5 192 7
355 30 356 48 753 187 1055 368 235 141 393 272 605 502 36 39 140 179 170
230 13 22 26 42 29 45 7 6 29 46 78 139 40 77 108 244 118 291 4 19 10 39 13
45 3 5 7 16 9 25 1 8 9 44 17 80 45 198 54 454 21 590 -3 14 -8 36 -11 50 -19
97 -114 323 -176 420 -12 19 -22 38 -23 42 0 3 -10 18 -22 32 -13 15 -23 29
-23 32 0 15 -199 268 -277 352 -57 61 -72 89 -79 144 -8 69 13 116 88 198 130
143 299 390 390 572 47 95 111 270 123 337 3 19 8 38 11 42 8 14 17 139 17
234 0 168 -16 282 -59 445 -43 161 -140 388 -205 482 -11 14 -19 29 -19 32 0
7 -87 130 -140 196 -119 151 -326 347 -465 440 -27 19 -52 37 -55 40 -3 4 -19
14 -37 23 -17 9 -37 22 -45 29 -24 23 -284 157 -419 216 -98 43 -384 132 -479
148 -14 3 -34 8 -45 11 -11 4 -29 7 -40 8 -11 1 -38 5 -60 9 -67 12 -81 14
-136 21 -30 3 -67 8 -84 10 -16 2 -98 7 -181 11 -122 5 -153 3 -160 -7z m576
-343 c14 -2 59 -10 100 -17 41 -7 77 -13 80 -14 3 -1 21 -5 40 -9 19 -4 73
-20 120 -34 47 -14 87 -27 90 -27 41 -12 235 -98 300 -133 126 -69 264 -163
360 -247 58 -51 204 -199 230 -234 14 -19 30 -39 36 -45 18 -19 120 -168 147
-216 96 -167 181 -386 211 -540 2 -14 9 -49 15 -79 6 -29 9 -57 6 -61 -3 -5
-2 -11 2 -13 9 -6 16 -93 16 -222 1 -82 -4 -139 -18 -220 -12 -68 -60 -197
-115 -310 -57 -115 -192 -336 -211 -343 -5 -2 -9 -10 -9 -17 0 -7 -3 -15 -7
-17 -5 -1 -28 -30 -53 -63 -25 -33 -47 -62 -50 -65 -14 -13 -99 -128 -109
-147 -26 -52 -8 -133 41 -183 26 -27 164 -199 213 -265 16 -22 32 -42 35 -45
3 -3 29 -41 56 -85 160 -253 226 -444 228 -665 0 -122 -10 -246 -28 -325 -3
-16 -8 -43 -11 -60 -5 -41 -48 -185 -79 -267 -181 -481 -588 -896 -1085 -1106
-80 -34 -282 -100 -316 -103 -16 -2 -34 -6 -40 -10 -5 -3 -32 -10 -58 -13 -27
-4 -59 -9 -70 -12 -61 -12 -85 -15 -175 -20 -100 -6 -139 -7 -158 -5 -7 1 -10
918 -9 3119 1 1714 3 3121 3 3126 2 8 218 2 272 -8z"/>
<path d="M4795 6054 l1 -1876 -36 -27 c-19 -15 -73 -53 -120 -86 -47 -32 -87
-60 -89 -62 -6 -5 19 -49 41 -72 10 -11 18 -23 18 -26 0 -4 12 -22 26 -41 l26
-34 64 45 c34 25 65 42 67 38 6 -12 0 -2694 -6 -2700 -3 -3 -19 8 -34 23 -16
16 -69 65 -118 109 -48 44 -100 91 -115 105 -279 257 -269 249 -281 228 -32
-57 -282 -322 -399 -422 -100 -87 -361 -273 -450 -322 -19 -10 -42 -24 -50
-30 -15 -12 -266 -139 -330 -167 -112 -50 -290 -119 -340 -131 -8 -3 -53 -16
-99 -31 -46 -15 -92 -28 -102 -31 -11 -2 -28 -6 -39 -8 -11 -3 -48 -12 -83
-21 -34 -9 -78 -18 -97 -21 -19 -3 -37 -7 -40 -9 -3 -2 -24 -6 -46 -9 -22 -4
-49 -8 -61 -10 -24 -5 -110 -18 -133 -21 -8 -1 -40 -5 -70 -9 -30 -3 -73 -8
-95 -11 -47 -5 -242 -18 -300 -19 -22 -1 -43 -5 -46 -11 -5 -8 -5 -88 0 -117
0 -5 750 -8 1666 -8 l1665 0 1 393 c0 215 0 425 -1 466 -2 83 -4 83 66 16 17
-16 71 -66 120 -110 48 -44 97 -88 107 -98 10 -10 21 -16 25 -13 3 4 6 730 6
1614 l1 1607 120 87 c66 48 126 87 133 87 6 1 12 5 12 9 0 5 24 24 53 42 28
19 54 38 55 42 2 4 10 8 17 8 7 0 15 3 17 8 2 4 31 26 66 50 l62 43 48 -34
c58 -42 132 -94 237 -166 44 -30 82 -57 85 -60 3 -4 38 -28 78 -56 41 -27 77
-56 81 -65 4 -8 6 -882 6 -1943 l-1 -1927 158 0 158 0 0 68 c1 37 1 858 1
1825 0 1347 3 1756 12 1750 7 -3 37 -24 68 -44 l57 -38 58 85 c47 69 55 87 43
94 -7 5 -64 44 -126 87 l-111 78 -1 1850 c0 1018 0 1862 -1 1878 l0 27 -158 0
-158 0 0 -1761 c1 -968 -1 -1762 -4 -1764 -5 -2 -295 197 -332 229 -10 9 -21
16 -24 16 -6 0 -95 60 -104 70 -3 3 -20 16 -38 29 l-32 23 -128 -90 c-70 -49
-156 -109 -192 -133 -36 -24 -67 -47 -70 -50 -10 -12 -135 -93 -140 -91 -3 1
-6 790 -6 1752 -1 963 -2 1755 -3 1760 -1 6 -61 10 -158 10 l-158 0 0 -1876z"/>
<path d="M5114 592 l1 -317 350 -2 350 -3 -55 51 c-30 28 -93 85 -138 127 -46
42 -94 85 -105 95 -12 10 -62 55 -111 100 -49 45 -98 90 -110 100 -12 10 -39
35 -61 56 -22 20 -58 54 -81 74 l-40 36 0 -317z"/>
</g>
</svg>
